<?xml version="1.0" encoding="UTF-8"?>
<svg id="_三色ロゴ" data-name="三色ロゴ" xmlns="http://www.w3.org/2000/svg" viewBox="0 0 400 400">
  <defs>
    <style>
      .cls-1 {
        fill: #87bce3;
      }

      .cls-2 {
        fill: none;
        stroke: #231815;
        stroke-miterlimit: 10;
      }

      .cls-3 {
        fill: #65b688;
      }

      .cls-4 {
        fill: #fff;
      }

      .cls-5 {
        fill: #f5e550;
      }
    </style>
  </defs>
  <ellipse class="cls-4" cx="200" cy="200" rx="199.573321" ry="200"/>
  <g>
    <g>
      <path class="cls-3" d="M400,200.43437v.420283c-.121757,56.033229-23.174485,106.684122-60.283424,142.991159-1.001116.989699-2.029289,1.952283-3.057463,2.914867-.135286.135575-.284101.257593-.419386.393168-1.745189,1.613345-3.503906,3.186017-5.262624,4.731574-.635844.542301-1.271688,1.098159-1.907532,1.64046-1.271688,1.084602-2.543376,2.142088-3.828593,3.186017-25.934319,20.892138-57.171847,35.439356-91.385666,41.282647-.067643.013558-.121757.013558-.175872.027115-29.87114,4.284176-61.555112,1.450655-95.552474-6.955008-.054114-.013558-.0947-.027115-.148815-.040673-4.166808-1.355752-8.265972-2.847079-12.311022-4.487539-.108229-.040673-.229986-.081345-.338215-.135575-.730544-.298265-1.488146-.610088-2.286333-.935469-.378801-.16269-.784659-.32538-1.190516-.488071-.054114-.027115-.108229-.040673-.162343-.067788-4.951466-2.169203-7.792471-10.357945-8.807116-13.896458-.432915-1.504885-.974059-2.996212-1.596374-4.446866-7.305442-16.9469-14.502655-22.51904-21.334596-26.626969-4.356208-2.616601-9.727061-2.725061-14.367369-4.365521-28.680624-10.11391-41.194575-38.991426-39.692901-58.161759.1894-2.453911,1.488146-10.2766,3.706835-16.445271,1.298745-3.646973,4.180336-7.117698,5.966111-8.90729,4.680894-4.690902,12.608652-3.253805,15.476714,2.725061.257043.542301.500558,1.084602.730544,1.64046,2.056347,5.056955,2.692191,10.561308,2.326919,16.011431-1.664017,25.257659,21.78104,33.717551,32.549802,36.266365,10.335847,2.440354,19.697636,7.971822,26.705449,15.957201,9.957047,11.361201,15.463185,24.511995,15.463185,24.511995,24.18913-97.614141,108.255826-93.262177,108.255826-93.262177-12.405723-45.390576,4.342679-68.709509,4.342679-68.709509-1.772246-8.256529-3.016877-15.455572-3.842121-21.705589-5.438496-40.550541,6.331383-42.028311,6.331383-42.028311,21.835154-4.568884,48.08063,15.862298,48.08063,15.862298,17.681875.623646,39.084114-4.663787,39.084114-4.663787,1.474617-1.721805,1.866946-4.663787,1.866946-4.663787,7.048399-39.655745,12.405723-38.855851,12.405723-38.855851,7.846586-1.518442,14.448541,3.592743,14.800284,3.877451l.013529.013558s0,.013558.013529.013558c20.42818,36.212135,29.438225,71.936199,29.830554,105.3826ZM367.828999,196.611149s5.343113-4.073109-.1433-4.935541c-.970868-.152615-1.964982.055358-2.802222.571051-2.733286,1.68355-10.386743,5.558337-19.786698,3.126162-.691164-.178834-1.418381-.210143-2.107742-.024451-1.066992.287414-1.723749.170227-1.562943,1.92625.122221,1.334665,1.072431,2.441245,2.354917,2.821405,3.675944,1.089639,12.237441,2.398005,24.047987-3.484876ZM304.447526,202.847608c.014642-3.256958-.802534-2.972414-2.079964-3.211242-.942647-.176238-1.923084.122546-2.592804.810298-6.960825,7.148252-14.893401,7.035433-18.035502,6.642793-1.022191-.127734-2.063767.157148-2.844314.830795-4.333419,3.739935,1.918127,5.380203,1.918127,5.380203,17.113674.366053,23.634457-10.452848,23.634457-10.452848Z"/>
      <path class="cls-1" d="M285.899821,19.373696s-16.802516,7.537981-16.220787,29.907888c0,0-47.350086-1.74892-51.787466,42.990895,0,0-42.709778,8.432777-34.890249,53.755565,0,0,1.258159,13.99136,14.394426,19.482156h50.082863l.0947-.013558c.825244,6.250017,2.069875,13.449059,3.842121,21.705589,0,0-16.748402,23.318934-4.342679,68.709509,0,0-84.066696-4.351964-108.255826,93.262177,0,0-5.506139-13.150794-15.463185-24.511995-7.007813-7.985379-16.369601-13.516847-26.705449-15.957201-10.768762-2.548814-34.213819-11.008706-32.549802-36.266365.365272-5.450123-.270572-10.954476-2.326919-16.011431-.229986-.555858-.473501-1.098159-.730544-1.64046-2.868062-5.978866-10.79582-7.415963-15.476714-2.725061-1.785775,1.789593-4.667366,5.260318-5.966111,8.90729-2.21869,6.168671-3.517435,13.99136-3.706835,16.445271-1.501674,19.170333,11.012277,48.047849,39.692901,58.161759,4.640308,1.64046,10.011161,1.74892,14.367369,4.365521,6.831941,4.107928,14.029154,9.680069,21.334596,26.626969.622315,1.450655,1.163459,2.941982,1.596374,4.446866,1.014645,3.538513,3.85565,11.727254,8.807116,13.896458C50.150506,354.366448,0,283.270815,0,200.43437c0-16.079218,1.894003-31.724596,5.465553-46.705655l108.837555-.257593s19.548821-2.331893,13.961511-30.151924c-5.573782-27.82003-25.893733-35.900312-34.741435-36.998471-8.834173-1.084602-16.599587,2.806407-16.599587,2.806407,0,0-6.047282-30.206154-22.565698-26.057553C90.830994,24.240845,142.591403,0,200.006764,0c30.750499,0,59.877566,6.955008,85.893056,19.373696ZM218.189197,206.182758c.027057-7.687114-5.884939-14.181166-13.555653-14.506546-3.896236-.176248-8.888288.582973-15.314371,2.928424.419386-.420283,7.494842-7.551538,6.480198-9.219113-1.271688-2.060743-3.923293.433841-11.309906,7.632884,0,0-.351743-10.954476-3.314506-12.933874-.744073-.501628-1.772246-.176248-2.096932.664318-.487029,1.247292-.662901,4.135043,1.095816,10.818901,0,0-15.855515-17.706121-25.203774-11.618794,0,0-23.715629,10.954476-3.923293,43.641656,0,0-11.959279,28.538579,16.518416,16.336811,0,0,11.959279,29.636738,25.000846-2.386123,0,0,25.528461-3.009769,25.623161-31.358543ZM202.198397,74.769721s6.520783-5.694158,0-16.377484c-6.507255-10.669768-13.542125-9.219113-13.542125-9.219113,0,0-1.555789-12.744068-14.367369-10.357945,0,0-4.13975-13.99136-21.19931-9.951219,0,0-11.796936,2.182761-15.923158,14.926829,0,0-14.583827-1.450655-20.374066,14.913272,0,0-2.89512,12.228883,6.412555,16.065661h78.993472ZM167.132276,259.51804c0-3.619858-2.935705-6.561839-6.54784-6.561839-3.625664,0-6.54784,2.941982-6.54784,6.561839s2.922177,6.561839,6.54784,6.561839c3.612135,0,6.54784-2.941982,6.54784-6.561839ZM149.193357,273.766993c0-2.264106-1.82636-4.094371-4.072107-4.094371-2.259276,0-4.085636,1.830265-4.085636,4.094371,0,2.250548,1.82636,4.080813,4.085636,4.080813,2.245747,0,4.072107-1.830265,4.072107-4.080813ZM127.939933,279.501824c0-1.69469-1.379917-3.077557-3.070991-3.077557s-3.070991,1.382867-3.070991,3.077557c0,1.708247,1.379917,3.077557,3.070991,3.077557s3.070991-1.369309,3.070991-3.077557ZM85.541313,240.239247c0-1.491327-1.217574-2.697946-2.692191-2.697946-1.488146,0-2.692191,1.206619-2.692191,2.697946,0,1.47777,1.204045,2.684389,2.692191,2.684389,1.474617,0,2.692191-1.206619,2.692191-2.684389ZM73.352048,234.206151c0-1.843823-1.488146-3.33515-3.328035-3.33515s-3.328035,1.491327-3.328035,3.33515,1.488146,3.33515,3.328035,3.33515,3.328035-1.491327,3.328035-3.33515ZM62.989143,215.171394c4.559137-3.050442,0-9.883432,0-9.883432,0,0,11.296378-15.035289-1.095816-22.586828,0,0-5.167924-3.782548-12.973924,5.151857,0,0,.527615-3.294477,1.379917-5.938194,0,0-.067643-3.131787-2.31339-.949026,0,0-1.63696,2.535256-1.664017,5.436565,0,0-3.774478-5.436565-6.45314-2.467469,0,0-1.095816,1.816708.717016,1.74892,0,0,1.812832.650761,4.275036,3.33515,0,0-14.773227-4.433309-14.773227,6.399149,0,0-1.528731,7.768459,11.377549,15.387785,0,0-.798187,7.714229,5.073224,8.148069,5.871411.420283,7.237799-7.266831,7.237799-7.266831,0,0,4.640308,6.534724,9.212974,3.484283ZM64.071431,224.268489c0-2.941982-2.367504-5.314548-5.30321-5.314548s-5.30321,2.372566-5.30321,5.314548c0,2.928424,2.367504,5.314548,5.30321,5.314548s5.30321-2.386123,5.30321-5.314548Z"/>
      <path class="cls-5" d="M189.319173,194.604636c6.426083-2.345451,11.418135-3.104672,15.314371-2.928424,7.670714.32538,13.58271,6.819432,13.555653,14.506546-.0947,28.348774-25.623161,31.358543-25.623161,31.358543-13.041567,32.022861-25.000846,2.386123-25.000846,2.386123-28.477695,12.201768-16.518416-16.336811-16.518416-16.336811-19.792336-32.68718,3.923293-43.641656,3.923293-43.641656,9.34826-6.087326,25.203774,11.618794,25.203774,11.618794-1.758717-6.683857-1.582846-9.571609-1.095816-10.818901.324686-.840566,1.35286-1.165947,2.096932-.664318,2.962763,1.979398,3.314506,12.933874,3.314506,12.933874,7.386613-7.199043,10.038218-9.693627,11.309906-7.632884,1.014645,1.667575-6.060811,8.79883-6.480198,9.219113Z"/>
      <path class="cls-5" d="M160.584435,252.956201c3.612135,0,6.54784,2.941982,6.54784,6.561839s-2.935705,6.561839-6.54784,6.561839c-3.625664,0-6.54784-2.941982-6.54784-6.561839s2.922177-6.561839,6.54784-6.561839Z"/>
      <path class="cls-5" d="M145.12125,269.672623c2.245747,0,4.072107,1.830265,4.072107,4.094371,0,2.250548-1.82636,4.080813-4.072107,4.080813-2.259276,0-4.085636-1.830265-4.085636-4.080813,0-2.264106,1.82636-4.094371,4.085636-4.094371Z"/>
      <path class="cls-5" d="M124.868942,276.424267c1.691075,0,3.070991,1.382867,3.070991,3.077557,0,1.708247-1.379917,3.077557-3.070991,3.077557s-3.070991-1.369309-3.070991-3.077557c0-1.69469,1.379917-3.077557,3.070991-3.077557Z"/>
      <path class="cls-5" d="M82.849122,237.541301c1.474617,0,2.692191,1.206619,2.692191,2.697946,0,1.47777-1.217574,2.684389-2.692191,2.684389-1.488146,0-2.692191-1.206619-2.692191-2.684389,0-1.491327,1.204045-2.697946,2.692191-2.697946Z"/>
      <ellipse class="cls-5" cx="70.024013" cy="234.206151" rx="3.328035" ry="3.33515"/>
      <path class="cls-5" d="M62.989143,205.287962s4.559137,6.83299,0,9.883432c-4.572665,3.050442-9.212974-3.484283-9.212974-3.484283,0,0-1.366388,7.687114-7.237799,7.266831-5.871411-.433841-5.073224-8.148069-5.073224-8.148069-12.906281-7.619326-11.377549-15.387785-11.377549-15.387785,0-10.832458,14.773227-6.399149,14.773227-6.399149-2.462204-2.684389-4.275036-3.33515-4.275036-3.33515-1.812832.067788-.717016-1.74892-.717016-1.74892,2.678662-2.969097,6.45314,2.467469,6.45314,2.467469.027057-2.901309,1.664017-5.436565,1.664017-5.436565,2.245747-2.182761,2.31339.949026,2.31339.949026-.852302,2.643716-1.379917,5.938194-1.379917,5.938194,7.806-8.934405,12.973924-5.151857,12.973924-5.151857,12.392194,7.551538,1.095816,22.586828,1.095816,22.586828Z"/>
      <ellipse class="cls-5" cx="58.768221" cy="224.268489" rx="5.30321" ry="5.314548"/>
    </g>
    <line class="cls-2" x1="189.319173" y1="194.604636" x2="189.305645" y2="194.618194"/>
  </g>
</svg>