<?xml version="1.0" encoding="UTF-8"?>
<svg xmlns="http://www.w3.org/2000/svg" viewBox="0 0 400 400">
  <defs>
    <style>
      .cls-1 {
        stroke-linecap: round;
        stroke-linejoin: round;
        stroke-width: .5px;
      }

      .cls-1, .cls-2 {
        fill: none;
        stroke: #231815;
      }

      .cls-2 {
        stroke-miterlimit: 10;
      }

      .cls-3 {
        fill: #231815;
      }

      .cls-4 {
        fill: #fff;
      }
    </style>
  </defs>
  <g id="_しろまる" data-name="しろまる">
    <circle class="cls-4" cx="200" cy="200" r="146.94505"/>
    <circle class="cls-3" cx="200" cy="200" r="147.185324"/>
  </g>
  <g id="_黒ロゴ" data-name="黒ロゴ">
    <g>
      <g>
        <path class="cls-3" d="M327.55461,126.384432c38.589115,68.482233,12.979251,141.088341-23.428394,177.735051-1.145521,1.155482-2.310964,2.281081-3.50629,3.396719-.099611.099611-.199221.199221-.308793.288871-.826767.75704-1.653535,1.504119-2.480302,2.241237-2.589874,2.291042-5.219591,4.472512-7.889153,6.554372-.916417.707235-1.822873,1.404508-2.74925,2.08186-.438286.328715-.886534.657429-1.334781.966222-.209182.149416-.408403.298832-.607624.438286-15.469514,11.006962-33.160342,19.095337-52.26564,23.458277-9.492883,2.051977-19.254714,3.077965-29.235688,3.077965l-.049805.009961c-15.678696-.009961-32.044704-2.320925-49.207597-6.544411-.029883,0-.049805-.009961-.069727-.019922-2.958432-.966222-5.877021-2.012133-8.745804-3.157653-.119533-.039844-.239065-.089649-.358598-.149416-.099611-.029883-.199221-.069727-.288871-.119533-.278909-.109572-.547858-.219143-.826767-.338676-.249026-.099611-.488092-.199221-.717196-.288871-.278909-.099611-.547858-.219143-.806845-.328715-.099611-.049805-.199221-.089649-.298832-.129494-1.61369-.836728-2.430497-6.81336-3.655706-11.046807-.348637-1.205287-.786923-2.420536-1.304898-3.625823-5.807293-13.437459-11.773963-17.860166-16.913866-20.938131-2.410575-1.444353-5.070175-2.012133-7.411023-2.520146-1.32482-.288871-2.589874-.557819-3.715472-.956261-20.36039-7.161996-28.189777-27.512426-27.233516-39.67487.119533-1.573846,1.035949-7.052425,2.55999-11.305794.717196-2.012133,2.440458-4.193603,3.69555-5.438734.966222-.976183,2.071899-1.175404,2.828939-1.175404,1.275015,0,2.928549.617585,3.765278,2.360769.159377.338676.308793.687313.458208,1.035949,1.245132,3.068004,1.753145,6.584255,1.494158,10.439183-1.374625,20.938131,17.909972,27.781374,26.267294,29.743701,7.112191,1.683418,13.367732,5.408851,18.099232,10.79778,6.91297,7.849309,10.837625,17.093165,10.877469,17.182815l3.486368,8.297556,2.171509-8.725882c15.668735-63.083342,65.742943-66.28084,75.624307-66.28084.637507,0,.996105.019922,1.035949.019922l4.123876.199221-1.085755-3.97446c-8.596388-31.367353,2.629718-47.793128,2.74925-47.952504l.747079-1.065833-.258987-1.294937c-8.04853-37.59301-.9463-42.952056-.418364-43.290732,1.334781-.268948,2.769172-.408403,4.253369-.408403,13.616758,0,28.488609,11.395444,28.638025,11.514976l.767001.587702.956261.029883c.767001.029883,1.534002.039844,2.301003.039844,12.750147,0,26.715541-3.396719,27.303244-3.546135l.926378-.229104.627546-.727157c1.504119-1.763106,1.952366-4.253369,2.051977-4.900838,3.576018-20.041637,6.454762-25.09189,7.251646-26.167684.368559-.049805.737118-.069727,1.105677-.069727,2.948471,0,9.921208,3.077965,10.917313,3.745356.039844.049805.069727.099611.089649.149416ZM323.570189,197.18759s4.661772-3.536173-1.374625-3.725433c0,0-6.992659,5.309241-15.99745,2.64964,0,0-3.954538.229104-1.80295,3.087926,0,0,7.391101,3.854927,19.175025-2.012133ZM276.892699,201.769674c.687313-4.193603-2.818978-2.410575-2.818978-2.410575-6.683866,7.500672-14.911695,5.359046-14.911695,5.359046-5.139903,3.307069.338676,4.7315.338676,4.7315,12.600731.268948,17.391997-7.679971,17.391997-7.679971Z"/>
        <path class="cls-3" d="M285.250022,320.08705c-16.116982,11.614587-33.668356,19.473857-52.26564,23.458277,19.105298-4.362941,36.796126-12.451315,52.26564-23.458277Z"/>
        <path class="cls-3" d="M263.246058,66.976718s-12.371627,5.538345-11.943301,21.974081c0,0-34.863682-1.284976-38.130907,31.586496,0,0-31.457002,6.195774-25.689553,39.48561,0,0,.926378,10.289767,10.598559,14.323993h36.875815c0,.239065,1.553924,9.75187,2.898666,15.937683,0,0-12.331782,17.133009-3.197498,50.472651,0,0-61.897977-3.197498-79.708338,68.522077,0,0-4.054148-9.66222-11.385482-17.999621-5.159825-5.86706-12.062834-9.94113-19.663117-11.734119-7.928997-1.862717-25.191501-8.078413-23.966291-26.635853.258987-4.004343-.199221-8.04853-1.713301-11.764002-.169338-.408403-.348637-.816806-.537897-1.205287-2.111743-4.402785-7.94892-5.458657-11.395444-2.002171-1.314859,1.304898-3.436563,3.864888-4.402785,6.53445-1.623651,4.532279-2.579912,10.289767-2.719367,12.082756-1.105677,14.094889,8.098335,35.301968,29.225727,42.732913,3.416641,1.205287,7.371178,1.294937,10.578637,3.21742,5.030331,3.018199,10.329611,7.112191,15.698618,19.563506.468169,1.065833.866612,2.151587,1.185365,3.267225.737118,2.550029,2.759211,8.377245,6.255541,10.100507-52.55451-22.482094-89.370559-74.668046-89.370559-135.440424,0-11.813808,1.394547-23.298901,4.024265-34.305863l80.136663-.18926s14.39372-1.713301,10.279806-22.15338c-4.113914-20.45004-19.065454-26.386827-25.579982-27.183711-6.504567-.796884-12.222211,2.051977-12.222211,2.051977,0,0-4.45259-22.173302-16.605074-19.145142,26.854996-28.518492,64.965981-46.328853,107.230725-46.328853,22.641471,0,44.077655,5.11002,63.242719,14.234343ZM213.390992,204.230054c.019922-5.647916-4.343019-10.41926-9.980974-10.668287-2.868783-.119533-6.544411.438286-11.275911,2.151587.308793-.308793,5.518423-5.548306,4.771344-6.763554-.936339-1.524041-2.888705.318754-8.327439,5.608072,0,0-.258987-8.04853-2.440458-9.502844-.547858-.368559-1.314859-.129494-1.543963.488092-.358598.916417-.488092,3.038121.806845,7.938958,0,0-11.674353-13.009134-18.55744-8.526661,0,0-17.461724,8.04853-2.888705,32.064626,0,0-8.80557,20.968014,12.162445,12.003068,0,0,8.80557,21.77486,18.408024-1.763106,0,0,18.796505-2.201392,18.866233-23.029952ZM201.617029,107.677577s4.801227-4.193603,0-12.032951c-4.791266-7.839348-9.971013-6.773515-9.971013-6.773515,0,0-1.145521-9.363389-10.588598-7.610244,0,0-3.038121-10.279806-15.599007-7.311412,0,0-8.686037,1.593768-11.734119,10.957157,0,0-10.728053-1.065833-14.991383,10.967118,0,0-2.131665,8.984869,4.721539,11.803847h58.162583ZM175.797982,243.416832c0-2.669562-2.161548-4.83111-4.821149-4.83111-2.669562,0-4.821149,2.161548-4.821149,4.83111,0,2.659601,2.151587,4.821149,4.821149,4.821149,2.659601,0,4.821149-2.161548,4.821149-4.821149ZM162.589627,253.875937c0-1.653535-1.344742-2.998277-2.998277-2.998277-1.663496,0-3.008238,1.344742-3.008238,2.998277,0,1.663496,1.344742,3.008238,3.008238,3.008238,1.653535,0,2.998277-1.344742,2.998277-3.008238ZM146.940815,258.099423c0-1.245132-1.016027-2.261159-2.261159-2.261159s-2.261159,1.016027-2.261159,2.261159c0,1.255093,1.016027,2.261159,2.261159,2.261159s2.261159-1.006066,2.261159-2.261159ZM115.712916,229.242255c0-1.095716-.886534-1.982249-1.972288-1.982249-1.095716,0-1.982249.886534-1.982249,1.982249s.886534,1.982249,1.982249,1.982249c1.085755,0,1.972288-.886534,1.972288-1.982249ZM106.74797,224.809587c0-1.354703-1.105677-2.450419-2.46038-2.450419-1.344742,0-2.450419,1.095716-2.450419,2.450419s1.105677,2.450419,2.450419,2.450419c1.354703,0,2.46038-1.095716,2.46038-2.450419ZM99.117804,210.82427c3.356875-2.241237,0-7.251646,0-7.251646,0,0,8.317478-11.046807-.806845-16.595113,0,0-3.805122-2.779134-9.56261,3.7852,0,0,.398442-2.420536,1.025988-4.372902,0,0-.049805-2.291042-1.70334-.697274,0,0-1.205287,1.872678-1.225209,4.004343,0,0-2.779134-4.004343-4.751422-1.812911,0,0-.806845,1.334781.527936,1.275015,0,0,1.334781.488092,3.147692,2.46038,0,0-10.877469-3.257264-10.877469,4.691655,0,0-1.125599,5.717644,8.377245,11.315755,0,0-.587702,5.667839,3.735395,5.976631,4.323097.318754,5.329163-5.339124,5.329163-5.339124,0,0,3.416641,4.801227,6.783476,2.55999ZM99.914688,217.518097c0-2.161548-1.753145-3.914693-3.904732-3.914693-2.161548,0-3.904732,1.753145-3.904732,3.914693,0,2.151587,1.743184,3.904732,3.904732,3.904732,2.151587,0,3.904732-1.753145,3.904732-3.904732Z"/>
        <path class="cls-3" d="M154.421565,340.06892c-.468169-.119533-.926378-.249026-1.384586-.37852,0,0-.009961.009961-.019922,0-1.593768-.47813-3.157653-1.065833-4.851032-1.753145-.029883,0-.049805-.019922-.079688-.029883-.358598-.149416-.737118-.298832-1.145521-.468169-.308793-.129494-.75704-.308793-1.265054-.527936,2.868783,1.145521,5.787371,2.191431,8.745804,3.157653Z"/>
        <path class="cls-3" d="M153.036978,339.6904c.458208.129494.916417.258987,1.384586.37852-.498053-.119533-.9463-.239065-1.384586-.37852Z"/>
        <path class="cls-3" d="M153.017056,339.6904c-1.593768-.458208-2.918588-.956261-4.851032-1.753145,1.693379.687313,3.257264,1.275015,4.851032,1.753145Z"/>
        <path class="cls-3" d="M145.317163,336.761851c.119533.059766.239065.109572.358598.149416-.199221-.069727-.398442-.159377-.617585-.249026.089649.039844.169338.069727.258987.099611Z"/>
        <path class="cls-3" d="M145.058176,336.66224c-.069727-.029883-.149416-.059766-.229104-.089649.069727.029883.129494.059766.199221.069727.009961.019922.019922.019922.029883.019922Z"/>
        <path class="cls-3" d="M142.378653,335.556563c.099611.039844.199221.079688.298832.129494-.079688-.029883-.149416-.059766-.219143-.089649-.029883-.009961-.059766-.019922-.079688-.039844Z"/>
      </g>
      <g>
        <path class="cls-2" d="M91.557365,100.376126c.398442-.438286.806845-.876573,1.215248-1.304898,26.854996-28.518492,64.965981-46.328853,107.230725-46.328853,22.641471,0,44.077655,5.11002,63.242719,14.234343,26.924724,12.829835,49.347052,33.588667,64.218902,59.258298"/>
        <path class="cls-2" d="M64.642603,141.913712c6.404956-14.901734,15.190604-28.528453,25.898735-40.411988"/>
        <path class="cls-2" d="M56.932749,164.963587c1.912522-7.829387,4.442629-15.409747,7.550477-22.691276"/>
        <path class="cls-2" d="M142.109704,335.437031c-52.55451-22.482094-89.370559-74.668046-89.370559-135.440424,0-11.813808,1.394547-23.298901,4.024265-34.305863"/>
        <path class="cls-2" d="M142.677484,335.686057c-.099611-.049805-.199221-.089649-.298832-.129494"/>
        <path class="cls-2" d="M144.34098,336.37337c-.288871-.109572-.56778-.229104-.85665-.358598"/>
        <path class="cls-2" d="M145.317163,336.761851c-.089649-.029883-.169338-.059766-.258987-.099611-.009961,0-.019922,0-.029883-.019922-.069727-.009961-.129494-.039844-.199221-.069727"/>
        <path class="cls-2" d="M154.421565,340.06892c-2.958432-.966222-5.877021-2.012133-8.745804-3.157653"/>
        <path class="cls-2" d="M224.766514,345.17894c-8.04853,1.374625-16.326164,2.08186-24.763175,2.08186-.936339,0-1.872678-.009961-2.809017-.029883-14.881812-.278909-29.215766-2.759211-42.70303-7.142074"/>
        <path class="cls-2" d="M285.250022,320.08705c-15.469514,11.006962-33.160342,19.095337-52.26564,23.458277-2.659601.617585-5.339124,1.155482-8.058491,1.61369"/>
        <path class="cls-2" d="M292.212797,314.827614c-.747079.597663-1.504119,1.195326-2.27112,1.773067-.906456.707235-1.822873,1.404508-2.74925,2.08186-.448247.328715-.886534.647468-1.334781.966222"/>
        <path class="cls-2" d="M300.311132,307.805073c-1.265054,1.185365-2.55999,2.350808-3.874849,3.476407-.458208.408403-.926378.816806-1.404508,1.205287"/>
        <path class="cls-2" d="M327.55461,126.384432c12.531003,21.655327,19.702961,46.797022,19.702961,73.612174,0,40.661014-16.485541,77.477063-43.131355,104.122877"/>
        <path class="cls-2" d="M56.763411,165.690744l80.136663-.18926s14.39372-1.713301,10.279806-22.15338c-4.113914-20.45004-19.065454-26.386827-25.579982-27.183711-6.504567-.796884-12.222211,2.051977-12.222211,2.051977,0,0-4.45259-22.173302-16.605074-19.145142h-.009961s-.438286.448247-1.205287,1.304898c-.288871.318754-.627546.697274-1.016027,1.125599-4.930721,5.608072-17.063282,20.489884-25.898735,40.411988-.049805.119533-.109572.239065-.159377.358598-3.087926,7.00262-5.757488,14.632785-7.550477,22.691276-.059766.239065-.119533.488092-.169338.727157Z"/>
        <path class="cls-2" d="M143.454446,107.677577h58.162583s4.801227-4.193603,0-12.032951c-4.791266-7.839348-9.971013-6.773515-9.971013-6.773515,0,0-1.145521-9.363389-10.588598-7.610244,0,0-3.038121-10.279806-15.599007-7.311412,0,0-8.686037,1.593768-11.734119,10.957157,0,0-10.728053-1.065833-14.991383,10.967118,0,0-2.131665,8.984869,4.721539,11.803847Z"/>
        <path class="cls-2" d="M154.491292,340.088842c17.162893,4.223486,33.528901,6.53445,49.207597,6.544411,7.161996,0,14.174577-.468169,21.067625-1.454314.059766,0,.109572-.009961.159377-.019922,23.85672-3.446524,46.129632-13.0689,67.286906-30.331403.9463-.767001,1.8926-1.543963,2.818978-2.340847.468169-.398442.936339-.806845,1.404508-1.205287.468169-.408403.926378-.816806,1.394547-1.23517"/>
        <path class="cls-2" d="M153.036978,339.6904c.458208.129494.916417.258987,1.384586.37852"/>
        <path class="cls-2" d="M148.166024,337.937255c1.693379.687313,3.257264,1.275015,4.851032,1.753145"/>
        <path class="cls-2" d="M146.940815,337.439202c.388481.159377.767001.318754,1.145521.468169"/>
        <path class="cls-2" d="M144.201525,336.303642c.278909.119533.547858.229104.826767.338676.089649.049805.18926.089649.288871.119533.119533.059766.239065.109572.358598.149416"/>
        <path class="cls-2" d="M234.95667,174.346898c0,.239065,1.553924,9.75187,2.898666,15.937683,0,0-12.331782,17.133009-3.197498,50.472651,0,0-61.897977-3.197498-79.708338,68.522077,0,0-4.054148-9.66222-11.385482-17.999621-5.159825-5.86706-12.062834-9.94113-19.663117-11.734119-7.928997-1.862717-25.191501-8.078413-23.966291-26.635853.258987-4.004343-.199221-8.04853-1.713301-11.764002-.169338-.408403-.348637-.816806-.537897-1.205287-2.111743-4.402785-7.94892-5.458657-11.395444-2.002171-1.314859,1.304898-3.436563,3.864888-4.402785,6.53445-1.623651,4.532279-2.579912,10.289767-2.719367,12.082756-1.105677,14.094889,8.098335,35.301968,29.225727,42.732913,3.416641,1.205287,7.371178,1.294937,10.578637,3.21742,5.030331,3.018199,10.329611,7.112191,15.698618,19.563506.468169,1.065833.866612,2.151587,1.185365,3.267225.737118,2.550029,2.759211,8.377245,6.255541,10.100507.079688.039844.169338.079688.268948.119533"/>
        <path class="cls-2" d="M263.246058,66.976718s-12.371627,5.538345-11.943301,21.974081c0,0-34.863682-1.284976-38.130907,31.586496,0,0-31.457002,6.195774-25.689553,39.48561,0,0,.926378,10.289767,10.598559,14.323993h36.875815"/>
        <line class="cls-2" x1="192.134108" y1="195.713354" x2="192.124146" y2="195.723315"/>
        <path class="cls-2" d="M192.134108,195.713354c.308793-.308793,5.518423-5.548306,4.771344-6.763554-.936339-1.524041-2.888705.318754-8.327439,5.608072,0,0-.258987-8.04853-2.440458-9.502844-.547858-.368559-1.314859-.129494-1.543963.488092-.358598.916417-.488092,3.038121.806845,7.938958,0,0-11.674353-13.009134-18.55744-8.526661,0,0-17.461724,8.04853-2.888705,32.064626,0,0-8.80557,20.968014,12.162445,12.003068,0,0,8.80557,21.77486,18.408024-1.763106,0,0,18.796505-2.201392,18.866233-23.029952.019922-5.647916-4.343019-10.41926-9.980974-10.668287-2.868783-.119533-6.544411.438286-11.275911,2.151587Z"/>
        <path class="cls-2" d="M85.769994,191.619362s-10.877469-3.257264-10.877469,4.691655c0,0-1.125599,5.717644,8.377245,11.315755,0,0-.587702,5.667839,3.735395,5.976631,4.323097.318754,5.329163-5.339124,5.329163-5.339124,0,0,3.416641,4.801227,6.783476,2.55999,3.356875-2.241237,0-7.251646,0-7.251646,0,0,8.317478-11.046807-.806845-16.595113,0,0-3.805122-2.779134-9.56261,3.7852,0,0,.398442-2.420536,1.025988-4.372902,0,0-.049805-2.291042-1.70334-.697274,0,0-1.205287,1.872678-1.225209,4.004343,0,0-2.779134-4.004343-4.751422-1.812911,0,0-.806845,1.334781.527936,1.275015,0,0,1.334781.488092,3.147692,2.46038Z"/>
        <path class="cls-2" d="M175.797982,243.416832c0,2.659601-2.161548,4.821149-4.821149,4.821149-2.669562,0-4.821149-2.161548-4.821149-4.821149,0-2.669562,2.151587-4.83111,4.821149-4.83111,2.659601,0,4.821149,2.161548,4.821149,4.83111Z"/>
        <path class="cls-2" d="M162.589627,253.875937c0,1.663496-1.344742,3.008238-2.998277,3.008238-1.663496,0-3.008238-1.344742-3.008238-3.008238,0-1.653535,1.344742-2.998277,3.008238-2.998277,1.653535,0,2.998277,1.344742,2.998277,2.998277Z"/>
        <circle class="cls-2" cx="144.679656" cy="258.099423" r="2.261159"/>
        <path class="cls-2" d="M99.914688,217.518097c0,2.151587-1.753145,3.904732-3.904732,3.904732-2.161548,0-3.904732-1.753145-3.904732-3.904732,0-2.161548,1.743184-3.914693,3.904732-3.914693,2.151587,0,3.904732,1.753145,3.904732,3.914693Z"/>
        <path class="cls-2" d="M106.74797,224.809587c0,1.354703-1.105677,2.450419-2.46038,2.450419-1.344742,0-2.450419-1.095716-2.450419-2.450419s1.105677-2.450419,2.450419-2.450419c1.354703,0,2.46038,1.095716,2.46038,2.450419Z"/>
        <path class="cls-2" d="M115.712916,229.242255c0,1.095716-.886534,1.982249-1.972288,1.982249-1.095716,0-1.982249-.886534-1.982249-1.982249s.886534-1.982249,1.982249-1.982249c1.085755,0,1.972288.886534,1.972288,1.982249Z"/>
        <path class="cls-2" d="M274.073721,199.359099s3.50629-1.783028,2.818978,2.410575c0,0-4.791266,7.94892-17.391997,7.679971,0,0-5.478579-1.42443-.338676-4.7315,0,0,8.227829,2.141626,14.911695-5.359046Z"/>
        <path class="cls-2" d="M306.198114,196.111796s-3.954538.229104-1.80295,3.087926c0,0,7.391101,3.854927,19.175025-2.012133,0,0,4.661772-3.536173-1.374625-3.725433,0,0-6.992659,5.309241-15.99745,2.64964Z"/>
        <path class="cls-1" d="M200.003339,347.2608c-.9463,0-1.882639-.009961-2.809017-.029883-13.885707-.328715-26.157723-3.077965-42.70303-7.142074-.029883,0-.049805-.009961-.069727-.019922-.498053-.119533-.9463-.239065-1.384586-.37852,0,0-.009961.009961-.019922,0-1.593768-.458208-2.918588-.956261-4.851032-1.753145-.029883,0-.049805-.019922-.079688-.029883-.358598-.149416-.737118-.298832-1.145521-.468169-.308793-.129494-.75704-.308793-1.265054-.527936-.199221-.069727-.398442-.159377-.617585-.249026-.069727-.029883-.149416-.059766-.229104-.089649-.169338-.059766-.328715-.129494-.488092-.199221-.049805-.029883-.099611-.049805-.139455-.069727-.249026-.099611-.488092-.199221-.717196-.288871-.278909-.099611-.547858-.219143-.806845-.328715-.079688-.029883-.149416-.059766-.219143-.089649-.029883-.009961-.059766-.019922-.079688-.039844-1.61369-.836728-2.430497-6.81336-3.655706-11.046807-.348637-1.205287-.786923-2.420536-1.304898-3.625823-5.807293-13.437459-11.773963-17.860166-16.913866-20.938131-2.410575-1.444353-5.070175-2.012133-7.411023-2.520146-1.32482-.288871-2.589874-.557819-3.715472-.956261-20.36039-7.161996-28.189777-27.512426-27.233516-39.67487.119533-1.573846,1.035949-7.052425,2.55999-11.305794.717196-2.012133,2.440458-4.193603,3.69555-5.438734.966222-.976183,2.071899-1.175404,2.828939-1.175404,1.275015,0,2.928549.617585,3.765278,2.360769.159377.338676.308793.687313.458208,1.035949,1.245132,3.068004,1.753145,6.584255,1.494158,10.439183-1.374625,20.938131,17.909972,27.781374,26.267294,29.743701,7.112191,1.683418,13.367732,5.408851,18.099232,10.79778,6.91297,7.849309,10.837625,17.093165,10.877469,17.182815l3.486368,8.297556,2.171509-8.725882c15.668735-63.083342,65.742943-66.28084,75.624307-66.28084.637507,0,.996105.019922,1.035949.019922l4.123876.199221-1.085755-3.97446c-8.596388-31.367353,2.629718-47.793128,2.74925-47.952504l.747079-1.065833-.258987-1.294937c-8.04853-37.59301-.9463-42.952056-.418364-43.290732,1.334781-.268948,2.769172-.408403,4.253369-.408403,13.616758,0,28.488609,11.395444,28.638025,11.514976l.767001.587702.956261.029883c.767001.029883,1.534002.039844,2.301003.039844,12.750147,0,26.715541-3.396719,27.303244-3.546135l.926378-.229104.627546-.727157c1.504119-1.763106,1.952366-4.253369,2.051977-4.900838,3.576018-20.041637,6.454762-25.09189,7.251646-26.167684.368559-.049805.737118-.069727,1.105677-.069727,2.948471,0,9.921208,3.077965,10.917313,3.745356.039844.049805.069727.099611.089649.149416,38.589115,68.482233,12.979251,141.088341-23.428394,177.735051-1.145521,1.155482-2.310964,2.281081-3.50629,3.396719-.099611.099611-.199221.199221-.308793.288871-.826767.75704-1.653535,1.504119-2.480302,2.241237-2.589874,2.291042-5.219591,4.472512-7.889153,6.554372-.916417.707235-1.822873,1.404508-2.74925,2.08186-.438286.328715-.886534.657429-1.334781.966222-.209182.149416-.408403.298832-.607624.438286-16.116982,11.614587-33.668356,19.473857-52.26564,23.458277-9.492883,2.051977-19.254714,3.077965-29.235688,3.077965l-.049805.009961-3.69555.627546Z"/>
      </g>
    </g>
  </g>
  <g id="_白ロゴ" data-name="白ロゴ">
    <g>
      <g>
        <path class="cls-4" d="M347.482968,199.66077c.009977.568708.019955,1.137417.009977,1.706125-.279366,40.956979-17.25082,77.942977-44.449048,104.502655-.329252.309298-.648527.628572-.977779.947847-.419048.399094-.848074.798187-1.277099,1.197281-.099773.099773-.209524.189569-.309298.289343-.828119.758278-1.656238,1.506578-2.484358,2.244901-.758278.678459-1.526533,1.346941-2.294788,2.005445-.628572.538776-1.247167,1.067575-1.87574,1.586397-.059864.049887-.119728.099773-.179592.139683-.389116.33923-.78821.658504-1.187303.977779-.029932.029932-.059864.059864-.089796.079819-19.12656,15.37508-42.164237,26.080766-67.396929,30.380999-.059864.009977-.119728.019955-.179592.019955-5.637197.808165-11.354212,1.277099-17.161024,1.416782-.688436.019955-1.376873.019955-2.065309.019955h-1.822071c-14.497074,0-28.92809-1.915649-45.709975-5.677106-.528799-.119728-1.067575-.249433-1.606352-.379139-.349207-.079819-.718368-.169615-1.077553-.259411-2.344675-.628572-3.741502-1.257145-6.764636-2.51429-.957825-.399094-2.484358-.698414-3.571888-1.127439-.029932-.009977-.059864-.019955-.079819-.029932s-.039909-.009977-.049887-.019955c-1.68617-.78821-5.028579-7.862144-6.255792-12.132445-.349207-1.197281-.78821-2.414516-1.307031-3.631752-5.816789-13.459431-11.793215-17.88937-16.941523-20.972368-2.414516-1.446714-5.078466-2.015423-7.423141-2.524267-1.336964-.289343-2.594108-.558731-3.721548-.957825-20.403659-7.173707-28.235871-27.557412-27.278046-39.739744.119728-1.57642,1.027666-7.063956,2.564176-11.32428.718368-2.015423,2.444448-4.20046,3.691616-5.447627.977779-.977779,2.085264-1.177326,2.843542-1.177326,1.267122,0,2.923361.618595,3.761457,2.364629.169615.33923.319275.688436.458958,1.037643,1.257145,3.073021,1.765989,6.595021,1.506578,10.456252-1.38685,20.972368,17.939257,27.8268,26.310245,29.792336,7.113843,1.68617,13.38959,5.417695,18.128826,10.815436,6.914296,7.862144,10.855345,17.121115,10.895255,17.210911l3.492069,8.311124,2.17506-8.740149c15.694355-63.186492,65.850441-66.389218,75.747962-66.389218.63855,0,.997734.019955,1.037643.019955l4.120641.199547-1.08753-3.980959c-8.600467-31.418642,2.643995-47.871275,2.753746-48.030913l.758278-1.067575-.269388-1.297054c-8.051713-37.65448-.947847-43.022288-.419048-43.361518,1.346941-.269388,2.783678-.409071,4.270301-.409071,13.639023,0,28.535191,11.414077,28.684851,11.533805l.758278.588663.967802.029932c.758278.029932,1.526533.039909,2.304765.039909,12.761017,0,26.759225-3.402273,27.347888-3.551933l.927893-.229479.628572-.728346c1.506578-1.765989,1.955559-4.260324,2.055332-4.908851,3.581865-20.074407,6.465316-25.132918,7.263503-26.210471.359184-.049887.728346-.069841,1.097507-.069841,2.953293,0,9.807725,3.152839,10.805459,3.811344.079819.14966.169615.309298.239456.458958,12.222241,23.197315,18.158758,45.496669,19.455812,66.319376.079819,1.336964.14966,2.673927.189569,4.010891.029932.78821.049887,1.586397.059864,2.374607ZM323.776809,197.505665s4.669395-3.541956-1.376873-3.731525c0,0-7.004092,5.317922-16.023607,2.653972,0,0-3.970981.229479-1.805898,3.092975,0,0,7.393209,3.86123,19.206379-2.015423ZM277.022995,202.095241c.688436-4.20046-2.833564-2.414516-2.833564-2.414516-6.694795,7.512937-14.9261,5.367809-14.9261,5.367809-5.158285,3.312477.33923,4.739236.33923,4.739236,12.611357.269388,17.420435-7.692529,17.420435-7.692529Z"/>
        <path class="cls-4" d="M263.344063,67.081882s-12.381878,5.547401-11.952853,22.010011c0,0-34.920689-1.287077-38.203233,31.638144,0,0-31.498461,6.205905-25.721581,39.550174,0,0,.927893,10.306592,10.615889,14.347414h36.936111l.069841-.009977c.608618,4.599554,1.526533,9.897521,2.833564,15.973721,0,0-12.351946,17.161024-3.202726,50.55518,0,0-61.999188-3.202726-79.848649,68.634119,0,0-4.0508-9.678019-11.404099-18.029053-5.168262-5.876653-12.072581-9.957385-19.685291-11.753306-7.941962-1.865763-25.232692-8.091622-24.005479-26.679406.259411-4.010891-.209524-8.06169-1.72608-11.783238-.159637-.409071-.33923-.818142-.528799-1.207258-2.115196-4.409984-7.961917-5.467582-11.424054-2.005445-1.317009,1.307031-3.432205,3.871208-4.400007,6.545135-1.626306,4.53969-2.584131,10.306592-2.733791,12.102513-1.097507,14.117936,8.121554,35.359692,29.283492,42.802787,3.422227,1.207258,7.383231,1.297054,10.585957,3.222681,5.038556,3.023134,10.346501,7.12382,15.734265,19.595495.458958,1.067575.858051,2.155105,1.187303,3.272567.728346,2.544222,2.733791,8.331079,6.215883,10.107045-52.610512-22.53881-89.466804-74.790138-89.466804-135.651909,0-11.833125,1.396828-23.336997,4.030845-34.361958l80.267697-.189569s14.417256-1.716102,10.296614-22.189603c-4.120641-20.483478-19.106605-26.429973-25.621808-27.22816-6.52518-.798187-12.242196,2.055332-12.242196,2.055332,0,0-4.459871-22.209558-16.632225-19.176447,26.898908-28.565123,65.062232-46.404606,107.396083-46.404606,22.678493,0,44.149728,5.118375,63.346129,14.257618ZM213.417455,204.559644c.019955-5.657152-4.35012-10.436297-9.997294-10.685731-2.873474-.119728-6.555112.439003-11.294348,2.155105.309298-.309298,5.527446-5.557378,4.769168-6.774614-.927893-1.526533-2.883451.319275-8.331079,5.617242,0,0-.269388-8.06169-2.444448-9.518382-.558731-.369162-1.317009-.129705-1.556465.48889-.349207.917915-.478912,3.043089.818142,7.95194,0,0-11.693442-13.030406-18.597761-8.540603,0,0-17.480299,8.06169-2.893428,32.117056,0,0-8.819968,21.0023,12.192309,12.022694,0,0,8.819968,21.810464,18.438124-1.765989,0,0,18.82724-2.204992,18.897081-23.067609ZM201.62424,107.849291s4.7991-4.20046,0-12.052626c-4.809078-7.852166-9.987317-6.784591-9.987317-6.784591,0,0-1.147394-9.378699-10.605912-7.622687,0,0-3.053066-10.296614-15.634491-7.323367,0,0-8.690263,1.596374-11.743329,10.975074,0,0-10.755572-1.067575-15.025873,10.985051,0,0-2.135151,8.99956,4.729259,11.823147h58.267663ZM175.762976,243.810498c0-2.673927-2.165083-4.83901-4.83901-4.83901-2.66395,0-4.829032,2.165083-4.829032,4.83901,0,2.66395,2.165083,4.829032,4.829032,4.829032,2.673927,0,4.83901-2.165083,4.83901-4.829032ZM162.533023,254.286705c0-1.656238-1.346941-3.003179-3.013157-3.003179-1.656238,0-3.003179,1.346941-3.003179,3.003179,0,1.666216,1.346941,3.013157,3.003179,3.013157,1.666216,0,3.013157-1.346941,3.013157-3.013157ZM146.858623,258.517097c0-1.247167-1.017689-2.264856-2.264856-2.264856-1.257145,0-2.264856,1.017689-2.264856,2.264856,0,1.257145,1.007711,2.264856,2.264856,2.264856,1.247167,0,2.264856-1.007711,2.264856-2.264856ZM115.579663,229.612744c0-1.097507-.887983-1.985491-1.985491-1.985491s-1.985491.887983-1.985491,1.985491.887983,1.985491,1.985491,1.985491,1.985491-.887983,1.985491-1.985491ZM106.59008,225.172828c0-1.356918-1.097507-2.454426-2.454426-2.454426s-2.454426,1.097507-2.454426,2.454426,1.097507,2.454426,2.454426,2.454426,2.454426-1.097507,2.454426-2.454426ZM98.947438,211.164643c3.372341-2.244901,0-7.263503,0-7.263503,0,0,8.341056-11.06487-.798187-16.622248,0,0-3.811344-2.783678-9.578246,3.791389,0,0,.399094-2.424494,1.027666-4.380052,0,0-.059864-2.294788-1.716102-.698414,0,0-1.207258,1.87574-1.227213,4.010891,0,0-2.7737-4.010891-4.759191-1.815876,0,0-.798187,1.336964.538776,1.277099,0,0,1.336964.48889,3.152839,2.464403,0,0-10.905232-3.26259-10.905232,4.699327,0,0-1.117462,5.717016,8.390943,11.334258,0,0-.588663,5.677106,3.741502,5.986404,4.330165.319275,5.347854-5.347854,5.347854-5.347854,0,0,3.422227,4.809078,6.784591,2.564176ZM99.755603,217.869415c0-2.165083-1.756012-3.921094-3.921094-3.921094-2.155105,0-3.911117,1.756012-3.911117,3.921094,0,2.155105,1.756012,3.911117,3.911117,3.911117,2.165083,0,3.921094-1.756012,3.921094-3.911117Z"/>
      </g>
      <g>
        <path class="cls-2" d="M281.223455,323.669124c.389116-.269388.78821-.538776,1.177326-.808165"/>
        <line class="cls-2" x1="192.125813" y1="196.029019" x2="192.115835" y2="196.038996"/>
      </g>
    </g>
  </g>
  <g id="_線のみ" data-name="線のみ">
    <g>
      <path class="cls-2" d="M92.762728,99.07692c26.854996-28.528453,64.965981-46.338814,107.240686-46.338814,22.641471,0,44.077655,5.11002,63.242719,14.234343,25.629787,12.21225,47.175542,31.606418,62.01751,55.58267"/>
      <path class="cls-2" d="M91.577362,100.351934c.199221-.229104.408403-.448247.617585-.66739"/>
      <path class="cls-2" d="M142.109779,335.432762c-52.55451-22.482094-89.370559-74.658085-89.370559-135.430463,0-11.813808,1.394547-23.308862,4.024265-34.315824,1.962327-8.257712,4.631889-16.236515,7.928997-23.886603,6.394995-14.851929,15.160721-28.438803,25.84893-40.292455"/>
      <path class="cls-2" d="M142.68752,335.681788c-.169338-.069727-.338676-.139455-.508014-.219143"/>
      <path class="cls-2" d="M154.431601,340.064651c-3.187537-1.035949-6.315307-2.171509-9.403233-3.416641"/>
      <path class="cls-2" d="M224.766589,345.174671c-8.04853,1.374625-16.326164,2.08186-24.763175,2.08186-15.887878,0-31.178093-2.520146-45.512047-7.171957"/>
      <path class="cls-2" d="M292.212872,314.823345c-19.095337,15.349981-42.105367,26.03819-67.286906,30.331403"/>
      <path class="cls-2" d="M300.311207,307.800804c-1.265054,1.185365-2.55999,2.350808-3.874849,3.476407-.458208.408403-.926378.816806-1.404508,1.205287"/>
      <path class="cls-2" d="M325.353292,122.684613c13.885707,22.472133,21.904353,48.958571,21.904353,77.317686,0,.348637,0,.687313-.009961,1.035949-.278909,40.890119-17.222659,77.815738-44.376487,104.332059"/>
      <path class="cls-2" d="M56.763486,165.686475l80.136663-.18926s14.39372-1.713301,10.279806-22.15338c-4.113914-20.440079-19.065454-26.376866-25.579982-27.183711-6.504567-.796884-12.222211,2.061938-12.222211,2.061938,0,0-4.45259-22.193224-16.615035-19.145142,0,0-.199221.209182-.56778.607624-.179299.179299-.37852.408403-.617585.66739-.298832.328715-.637507.717196-1.035949,1.155482-4.92076,5.598111-17.013477,20.430118-25.84893,40.292455-3.267225,7.341295-6.086203,15.379864-7.928997,23.886603Z"/>
      <path class="cls-2" d="M143.454521,107.673308h58.162583s4.801227-4.183642,0-12.02299c-4.791266-7.849309-9.971013-6.783476-9.971013-6.783476,0,0-1.145521-9.363389-10.588598-7.610244,0,0-3.038121-10.279806-15.599007-7.311412,0,0-8.686037,1.603729-11.734119,10.967118,0,0-10.728053-1.065833-14.991383,10.967118,0,0-2.131665,8.974908,4.721539,11.793886Z"/>
      <path class="cls-2" d="M325.353292,122.684613c-.019922-.039844-.049805-.079688-.069727-.119533,0,0-.009961-.009961-.019922-.009961-.348637-.278909-5.169786-3.954538-10.88743-2.848861,0,0-3.944577-.577741-9.134285,28.548375,0,0-.298832,2.171509-1.374625,3.426602,0,0-15.758384,3.88481-28.777479,3.426602,0,0-19.324441-15.011305-35.401579-11.64447,0,0-8.666115,1.075794-4.661772,30.8693.607624,4.592045,1.524041,9.881364,2.828939,15.947644,0,0-12.331782,17.133009-3.197498,50.482612,0,0-61.897977-3.197498-79.708338,68.522077,0,0-4.054148-9.66222-11.385482-18.009582-5.159825-5.86706-12.062834-9.931169-19.663117-11.724158-7.928997-1.872678-25.191501-8.088374-23.966291-26.645814.258987-4.004343-.209182-8.04853-1.713301-11.764002-.169338-.408403-.348637-.806845-.537897-1.205287-2.111743-4.392824-7.94892-5.448695-11.395444-2.002171-1.314859,1.314859-3.436563,3.864888-4.402785,6.544411-1.623651,4.532279-2.579912,10.279806-2.719367,12.082756-1.105677,14.084928,8.098335,35.301968,29.225727,42.732913,3.416641,1.205287,7.371178,1.294937,10.568676,3.207459,5.040292,3.02816,10.339572,7.112191,15.708579,19.563506.468169,1.065833.866612,2.161548,1.185365,3.267225.737118,2.550029,2.759211,8.377245,6.255541,10.100507.029883.019922.049805.029883.069727.029883.089649.049805.18926.089649.278909.129494.079688.029883.159377.059766.229104.089649.816806.338676,1.593768.657429,2.340847.966222,3.516251,1.464275,6.365112,2.659601,9.403233,3.416641.019922,0,.039844.009961.059766.019922,25.002241,6.15593,48.311102,8.227829,70.275222,5.090098.049805-.009961.099611-.009961.159377-.019922,23.85672-3.446524,46.129632-13.0689,67.286906-30.331403.9463-.767001,1.882639-1.543963,2.818978-2.340847.468169-.398442.936339-.806845,1.404508-1.205287,1.294937-1.13556,2.589874-2.291042,3.874849-3.476407.099611-.099611.209182-.18926.308793-.288871.75704-.707235,1.51408-1.414469,2.251198-2.141626,26.32706-25.450488,44.575708-62.415952,44.376487-104.332059-.099611-24.832903-6.683866-51.408989-21.894392-78.353635Z"/>
      <path class="cls-2" d="M263.246133,66.972449s-12.371627,5.538345-11.943301,21.974081c0,0-34.863682-1.275015-38.130907,31.596457,0,0-31.457002,6.185813-25.689553,39.48561,0,0,.926378,10.279806,10.598559,14.314032h36.875815"/>
      <line class="cls-2" x1="192.134182" y1="195.719046" x2="192.124221" y2="195.729007"/>
      <path class="cls-2" d="M192.134182,195.719046c.308793-.308793,5.518423-5.548306,4.771344-6.773515-.936339-1.51408-2.888705.328715-8.327439,5.608072,0,0-.258987-8.04853-2.440458-9.492883-.547858-.368559-1.314859-.139455-1.543963.47813-.358598.926378-.488092,3.048082.806845,7.94892,0,0-11.674353-13.009134-18.55744-8.526661,0,0-17.461724,8.04853-2.888705,32.054665,0,0-8.80557,20.977976,12.162445,12.013029,0,0,8.80557,21.764899,18.408024-1.763106,0,0,18.796505-2.211354,18.866233-23.039913.019922-5.637955-4.343019-10.41926-9.980974-10.658326-2.868783-.129494-6.544411.428325-11.275911,2.151587Z"/>
      <path class="cls-2" d="M85.770069,191.615093s-10.88743-3.247303-10.88743,4.701617c0,0-1.115638,5.707683,8.387206,11.305794,0,0-.587702,5.667839,3.735395,5.986592,4.313136.318754,5.329163-5.339124,5.329163-5.339124,0,0,3.416641,4.801227,6.783476,2.55999,3.356875-2.241237,0-7.261607,0-7.261607,0,0,8.317478-11.046807-.806845-16.595113,0,0-3.805122-2.769172-9.56261,3.795161,0,0,.398442-2.430497,1.025988-4.372902,0,0-.049805-2.301003-1.70334-.697274,0,0-1.205287,1.862717-1.23517,3.994382,0,0-2.769172-3.994382-4.741461-1.812911,0,0-.806845,1.334781.527936,1.284976,0,0,1.334781.47813,3.147692,2.450419Z"/>
      <circle class="cls-2" cx="170.976908" cy="243.412563" r="4.821149"/>
      <path class="cls-2" d="M162.589702,253.881629c0,1.653535-1.344742,2.998277-2.998277,2.998277-1.663496,0-3.008238-1.344742-3.008238-2.998277,0-1.663496,1.344742-3.008238,3.008238-3.008238,1.653535,0,2.998277,1.344742,2.998277,3.008238Z"/>
      <circle class="cls-2" cx="144.679731" cy="258.105115" r="2.261159"/>
      <circle class="cls-2" cx="96.010031" cy="217.513828" r="3.904732"/>
      <path class="cls-2" d="M106.748045,224.815279c0,1.354703-1.105677,2.450419-2.46038,2.450419-1.344742,0-2.450419-1.095716-2.450419-2.450419s1.105677-2.450419,2.450419-2.450419c1.354703,0,2.46038,1.095716,2.46038,2.450419Z"/>
      <path class="cls-2" d="M115.712991,229.247947c0,1.095716-.886534,1.982249-1.982249,1.982249-1.085755,0-1.972288-.886534-1.972288-1.982249s.886534-1.982249,1.972288-1.982249c1.095716,0,1.982249.886534,1.982249,1.982249Z"/>
      <path class="cls-2" d="M274.073796,199.364791s3.50629-1.792989,2.818978,2.410575c0,0-4.791266,7.94892-17.391997,7.679971,0,0-5.478579-1.434391-.338676-4.7315,0,0,8.227829,2.141626,14.911695-5.359046Z"/>
      <path class="cls-2" d="M306.198189,196.107527s-3.954538.229104-1.80295,3.097887c0,0,7.391101,3.844966,19.175025-2.012133,0,0,4.661772-3.546135-1.374625-3.735395,0,0-6.992659,5.319202-15.99745,2.64964Z"/>
    </g>
  </g>
</svg>