<?xml version="1.0" encoding="UTF-8"?>
<svg id="_レイヤー_2" data-name="レイヤー 2" xmlns="http://www.w3.org/2000/svg" viewBox="0 0 295.67 295.039219">
  <defs>
    <style>
      .cls-1 {
        fill: #87bce3;
      }

      .cls-2 {
        fill: none;
        stroke: #231815;
        stroke-miterlimit: 10;
      }

      .cls-3 {
        fill: #65b688;
      }

      .cls-4 {
        fill: #fff;
      }

      .cls-5 {
        fill: #f5e550;
      }
    </style>
  </defs>
  <g id="_黒ロゴ" data-name="黒ロゴ">
    <circle class="cls-4" cx="147.835" cy="147.51961" r="147.51961"/>
  </g>
  <g id="_三色ロゴ" data-name="三色ロゴ">
    <g>
      <g>
        <path class="cls-3" d="M295.67,147.84v.31c-.09,41.33-17.13,78.69-44.56,105.47-.74.73-1.5,1.44-2.26,2.15-.1.1-.21.19-.31.29-1.29,1.19-2.59,2.35-3.89,3.49-.47.4-.94.81-1.41,1.21-.94.8-1.88,1.58-2.83,2.35-19.17,15.41-42.26,26.14-67.55,30.45-.05.01-.09.01-.13.02-22.08,3.16-45.5,1.07-70.63-5.13-.04-.01-.07-.02-.11-.03-3.08-1-6.11-2.1-9.1-3.31-.08-.03-.17-.06-.25-.1-.54-.22-1.1-.45-1.69-.69-.28-.12-.58-.24-.88-.36-.04-.02-.08-.03-.12-.05-3.66-1.6-5.76-7.64-6.51-10.25-.32-1.11-.72-2.21-1.18-3.28-5.4-12.5-10.72-16.61-15.77-19.64-3.22-1.93-7.19-2.01-10.62-3.22-21.2-7.46-30.45-28.76-29.34-42.9.14-1.81,1.1-7.58,2.74-12.13.96-2.69,3.09-5.25,4.41-6.57,3.46-3.46,9.32-2.4,11.44,2.01.19.4.37.8.54,1.21,1.52,3.73,1.99,7.79,1.72,11.81-1.23,18.63,16.1,24.87,24.06,26.75,7.64,1.8,14.56,5.88,19.74,11.77,7.36,8.38,11.43,18.08,11.43,18.08,17.88-72,80.02-68.79,80.02-68.79-9.17-33.48,3.21-50.68,3.21-50.68-1.31-6.09-2.23-11.4-2.84-16.01-4.02-29.91,4.68-31,4.68-31,16.14-3.37,35.54,11.7,35.54,11.7,13.07.46,28.89-3.44,28.89-3.44,1.09-1.27,1.38-3.44,1.38-3.44,5.21-29.25,9.17-28.66,9.17-28.66,5.8-1.12,10.68,2.65,10.94,2.86l.01.01s0,.01.01.01c15.1,26.71,21.76,53.06,22.05,77.73ZM271.89,145.02s3.949495-3.004317-.105924-3.640446c-.717641-.112568-1.452466.040832-2.071332.421206-2.020376,1.241783-7.677621,4.099818-14.625832,2.305851-.510891-.131908-1.048432-.155001-1.55799-.018035-.788694.211996-1.274152.125559-1.155288,1.420798.090342.984447.792714,1.800658,1.740696,2.081063,2.717166.803716,9.04561,1.768764,17.775671-2.570438ZM225.04,149.62c.010823-2.402326-.593213-2.192446-1.537457-2.368606-.696781-.129993-1.421496.09039-1.916536.597675-5.145268,5.272537-11.00883,5.189322-13.331392,4.899711-.755578-.094216-1.525485.115912-2.102446.612793-3.203155,2.758569,1.417831,3.968427,1.417831,3.968427,12.65.27,17.47-7.71,17.47-7.71Z"/>
        <path class="cls-1" d="M211.33,14.29s-12.42,5.56-11.99,22.06c0,0-35-1.29-38.28,31.71,0,0-31.57,6.22-25.79,39.65,0,0,.93,10.32,10.64,14.37h37.02l.07-.01c.61,4.61,1.53,9.92,2.84,16.01,0,0-12.38,17.2-3.21,50.68,0,0-62.14-3.21-80.02,68.79,0,0-4.07-9.7-11.43-18.08-5.18-5.89-12.1-9.97-19.74-11.77-7.96-1.88-25.29-8.12-24.06-26.75.27-4.02-.2-8.08-1.72-11.81-.17-.41-.35-.81-.54-1.21-2.12-4.41-7.98-5.47-11.44-2.01-1.32,1.32-3.45,3.88-4.41,6.57-1.64,4.55-2.6,10.32-2.74,12.13-1.11,14.14,8.14,35.44,29.34,42.9,3.43,1.21,7.4,1.29,10.62,3.22,5.05,3.03,10.37,7.14,15.77,19.64.46,1.07.86,2.17,1.18,3.28.75,2.61,2.85,8.65,6.51,10.25C37.07,261.38,0,208.94,0,147.84c0-11.86,1.4-23.4,4.04-34.45l80.45-.19s14.45-1.72,10.32-22.24c-4.12-20.52-19.14-26.48-25.68-27.29-6.53-.8-12.27,2.07-12.27,2.07,0,0-4.47-22.28-16.68-19.22C67.14,17.88,105.4,0,147.84,0c22.73,0,44.26,5.13,63.49,14.29ZM161.28,152.08c.02-5.67-4.35-10.46-10.02-10.7-2.88-.13-6.57.43-11.32,2.16.31-.31,5.54-5.57,4.79-6.8-.94-1.52-2.9.32-8.36,5.63,0,0-.26-8.08-2.45-9.54-.55-.37-1.31-.13-1.55.49-.36.92-.49,3.05.81,7.98,0,0-11.72-13.06-18.63-8.57,0,0-17.53,8.08-2.9,32.19,0,0-8.84,21.05,12.21,12.05,0,0,8.84,21.86,18.48-1.76,0,0,18.87-2.22,18.94-23.13ZM149.46,55.15s4.82-4.2,0-12.08c-4.81-7.87-10.01-6.8-10.01-6.8,0,0-1.15-9.4-10.62-7.64,0,0-3.06-10.32-15.67-7.34,0,0-8.72,1.61-11.77,11.01,0,0-10.78-1.07-15.06,11,0,0-2.14,9.02,4.74,11.85h58.39ZM123.54,191.42c0-2.67-2.17-4.84-4.84-4.84-2.68,0-4.84,2.17-4.84,4.84s2.16,4.84,4.84,4.84c2.67,0,4.84-2.17,4.84-4.84ZM110.28,201.93c0-1.67-1.35-3.02-3.01-3.02-1.67,0-3.02,1.35-3.02,3.02,0,1.66,1.35,3.01,3.02,3.01,1.66,0,3.01-1.35,3.01-3.01ZM94.57,206.16c0-1.25-1.02-2.27-2.27-2.27s-2.27,1.02-2.27,2.27c0,1.26,1.02,2.27,2.27,2.27s2.27-1.01,2.27-2.27ZM63.23,177.2c0-1.1-.9-1.99-1.99-1.99-1.1,0-1.99.89-1.99,1.99,0,1.09.89,1.98,1.99,1.98,1.09,0,1.99-.89,1.99-1.98ZM54.22,172.75c0-1.36-1.1-2.46-2.46-2.46s-2.46,1.1-2.46,2.46,1.1,2.46,2.46,2.46,2.46-1.1,2.46-2.46ZM46.56,158.71c3.37-2.25,0-7.29,0-7.29,0,0,8.35-11.09-.81-16.66,0,0-3.82-2.79-9.59,3.8,0,0,.39-2.43,1.02-4.38,0,0-.05-2.31-1.71-.7,0,0-1.21,1.87-1.23,4.01,0,0-2.79-4.01-4.77-1.82,0,0-.81,1.34.53,1.29,0,0,1.34.48,3.16,2.46,0,0-10.92-3.27-10.92,4.72,0,0-1.13,5.73,8.41,11.35,0,0-.59,5.69,3.75,6.01,4.34.31,5.35-5.36,5.35-5.36,0,0,3.43,4.82,6.81,2.57ZM47.36,165.42c0-2.17-1.75-3.92-3.92-3.92s-3.92,1.75-3.92,3.92c0,2.16,1.75,3.92,3.92,3.92s3.92-1.76,3.92-3.92Z"/>
        <path class="cls-5" d="M139.94,143.54c4.75-1.73,8.44-2.29,11.32-2.16,5.67.24,10.04,5.03,10.02,10.7-.07,20.91-18.94,23.13-18.94,23.13-9.64,23.62-18.48,1.76-18.48,1.76-21.05,9-12.21-12.05-12.21-12.05-14.63-24.11,2.9-32.19,2.9-32.19,6.91-4.49,18.63,8.57,18.63,8.57-1.3-4.93-1.17-7.06-.81-7.98.24-.62,1-.86,1.55-.49,2.19,1.46,2.45,9.54,2.45,9.54,5.46-5.31,7.42-7.15,8.36-5.63.75,1.23-4.48,6.49-4.79,6.8Z"/>
        <circle class="cls-5" cx="118.7" cy="191.42" r="4.84"/>
        <path class="cls-5" d="M107.27,198.91c1.66,0,3.01,1.35,3.01,3.02,0,1.66-1.35,3.01-3.01,3.01-1.67,0-3.02-1.35-3.02-3.01,0-1.67,1.35-3.02,3.02-3.02Z"/>
        <circle class="cls-5" cx="92.3" cy="206.16" r="2.27"/>
        <path class="cls-5" d="M61.24,175.21c1.09,0,1.99.89,1.99,1.99,0,1.09-.9,1.98-1.99,1.98-1.1,0-1.99-.89-1.99-1.98,0-1.1.89-1.99,1.99-1.99Z"/>
        <circle class="cls-5" cx="51.76" cy="172.75" r="2.46"/>
        <path class="cls-5" d="M46.56,151.42s3.37,5.04,0,7.29c-3.38,2.25-6.81-2.57-6.81-2.57,0,0-1.01,5.67-5.35,5.36-4.34-.32-3.75-6.01-3.75-6.01-9.54-5.62-8.41-11.35-8.41-11.35,0-7.99,10.92-4.72,10.92-4.72-1.82-1.98-3.16-2.46-3.16-2.46-1.34.05-.53-1.29-.53-1.29,1.98-2.19,4.77,1.82,4.77,1.82.02-2.14,1.23-4.01,1.23-4.01,1.66-1.61,1.71.7,1.71.7-.63,1.95-1.02,4.38-1.02,4.38,5.77-6.59,9.59-3.8,9.59-3.8,9.16,5.57.81,16.66.81,16.66Z"/>
        <circle class="cls-5" cx="43.44" cy="165.42" r="3.92"/>
      </g>
      <line class="cls-2" x1="139.94" y1="143.54" x2="139.93" y2="143.55"/>
    </g>
  </g>
</svg>