<?xml version="1.0" encoding="UTF-8"?>
<svg xmlns="http://www.w3.org/2000/svg" viewBox="0 0 400 400">
  <defs>
    <style>
      .cls-1 {
        fill: #89c3eb;
      }

      .cls-2 {
        fill: none;
        stroke: #231815;
        stroke-miterlimit: 10;
      }

      .cls-3 {
        fill: #68be8d;
      }

      .cls-4 {
        fill: #fff;
      }

      .cls-5 {
        fill: #ffec47;
      }
    </style>
  </defs>
  <g id="_フォントこれ" data-name="フォントこれ">
    <g>
      <path class="cls-3" d="M110.437988,339.680664v17.425781c0,1.824219.720215,3.503906,2.016113,4.799805,1.248047,1.296875,2.976562,2.016602,4.752441,1.96875,3.744629,0,6.816895-3.024414,6.816895-6.768555v-13.009766h2.399902c0,3.552734,2.880371,6.480469,6.432617,6.480469v2.400391c-2.543945,0-4.848145-1.103516-6.432617-2.832031v6.960938c0,5.087891-4.128418,9.168945-9.216797,9.168945-2.448242.047852-4.752441-.912109-6.480469-2.688477-1.728027-1.728516-2.687988-4.032227-2.687988-6.480469v-15.025391h-5.520508v-2.400391h7.92041Z"/>
      <path class="cls-3" d="M168.327637,363.106445c-1.968262,1.96875-4.608398,3.072266-7.392578,3.072266s-5.424805-1.103516-7.392578-3.072266c-4.128418-4.12793-4.128418-10.75293,0-14.833008,1.536133-1.583984,3.552246-2.591797,5.664062-2.928711v-10.896484h2.400391v10.75293c2.544434.192383,4.944336,1.248047,6.720703,3.072266l-1.680176,1.679688c-1.344238-1.34375-3.120117-2.160156-5.040527-2.351562v4.032227h-2.400391v-3.84082c-1.487793.288086-2.879883,1.056641-3.983887,2.160156-3.168457,3.168945-3.168457,8.304688,0,11.425781,1.536133,1.536133,3.552246,2.399414,5.712402,2.399414s4.17627-.863281,5.712402-2.399414l1.680176,1.727539Z"/>
      <path class="cls-3" d="M217.576172,351.201172c0,1.776367-.671875,3.40918-1.919922,4.657227s-2.928711,1.967773-4.704102,1.967773v-2.400391c1.151367,0,2.208008-.431641,2.975586-1.248047.816406-.81543,1.248047-1.87207,1.248047-2.976562,0-2.303711-1.87207-4.223633-4.223633-4.223633h-9.553711v19.297852h-2.399414v-19.297852h-9.313477v-2.400391h9.313477v-7.632812h2.399414v7.632812h9.553711c3.647461,0,6.624023,2.976562,6.624023,6.624023ZM208.599609,341.697266l-1.680664-1.680664,1.680664-1.679688,1.728516,1.679688-1.728516,1.680664Z"/>
      <path class="cls-3" d="M260.776367,341.745117v2.400391h-7.777344v16.321289c0,3.21582-2.591797,5.808594-5.808594,5.808594v-2.400391c1.872064,0,3.408203-1.536133,3.408203-3.408203v-1.96875c-1.055664.816406-2.351562,1.295898-3.791992,1.295898-3.3125,0-6.048828-2.735352-6.048828-6.095703s2.736328-6.048828,6.048828-6.048828c1.392578,0,2.736328.431641,3.791992,1.295898v-4.799805h-17.712891v-2.400391h17.712891v-4.800781h2.400391v4.800781h7.777344ZM250.50293,353.698242c0-.959961-.383789-1.87207-1.055664-2.592773-.720703-.671875-1.632812-1.055664-2.640625-1.055664-2.015625,0-3.648438,1.631836-3.648438,3.648438,0,2.063477,1.632812,3.696289,3.648438,3.696289,2.064453,0,3.696289-1.632812,3.696289-3.696289Z"/>
      <path class="cls-3" d="M297.783203,352.833984v4.944336h-2.399414v-4.944336h-8.401367v12.241211h-1.200195c-1.919922,0-3.791992-.720703-5.135742-2.112305-1.392578-1.392578-2.160156-3.216797-2.160156-5.18457,0-3.648438,2.639648-6.625,6.095703-7.201172v-9.503906h-6.095703v-2.400391h8.496094v11.760742h8.401367v-4.320312h2.399414v4.320312h4.993164v2.400391h-4.993164ZM284.582031,362.530273v-9.504883c-2.111328.52832-3.696289,2.448242-3.696289,4.75293,0,1.295898.52832,2.543945,1.44043,3.456055.624023.671875,1.44043,1.104492,2.255859,1.295898Z"/>
    </g>
    <text/>
  </g>
  <g id="_しろまる" data-name="しろまる">
    <circle class="cls-4" cx="202.23539" cy="173.241038" r="147.51961"/>
  </g>
  <g id="_三色ロゴ" data-name="三色ロゴ">
    <g>
      <g>
        <path class="cls-3" d="M349.755,173.251429v.31c-.09,41.33-17.13,78.69-44.56,105.47-.74.73-1.5,1.44-2.26,2.15-.1.1-.21.19-.31.29-1.29,1.19-2.59,2.35-3.89,3.49-.47.4-.94.81-1.41,1.21-.94.8-1.88,1.58-2.83,2.35-19.17,15.41-42.26,26.14-67.55,30.45-.05.01-.09.01-.13.02-22.08,3.16-45.5,1.07-70.63-5.13-.04-.01-.07-.02-.11-.03-3.08-1-6.11-2.1-9.1-3.31-.08-.03-.17-.06-.25-.1-.54-.22-1.1-.45-1.69-.69-.28-.12-.58-.24-.88-.36-.04-.02-.08-.03-.12-.05-3.66-1.6-5.76-7.64-6.51-10.25-.32-1.11-.72-2.21-1.18-3.28-5.4-12.5-10.72-16.61-15.77-19.64-3.22-1.93-7.19-2.01-10.62-3.22-21.2-7.46-30.45-28.76-29.34-42.9.14-1.81,1.1-7.58,2.74-12.13.96-2.69,3.09-5.25,4.41-6.57,3.46-3.46,9.32-2.4,11.44,2.01.19.4.37.8.54,1.21,1.52,3.73,1.99,7.79,1.72,11.81-1.23,18.63,16.1,24.87,24.06,26.75,7.64,1.8,14.56,5.88,19.74,11.77,7.36,8.38,11.43,18.08,11.43,18.08,17.88-72,80.02-68.79,80.02-68.79-9.17-33.48,3.21-50.68,3.21-50.68-1.31-6.09-2.23-11.4-2.84-16.01-4.02-29.91,4.68-31,4.68-31,16.14-3.37,35.54,11.7,35.54,11.7,13.07.46,28.89-3.44,28.89-3.44,1.09-1.27,1.38-3.44,1.38-3.44,5.21-29.25,9.17-28.66,9.17-28.66,5.8-1.12,10.68,2.65,10.94,2.86l.01.01s0,.01.01.01c15.937857,24.728571,21.76,53.06,22.05,77.73ZM325.975,170.431429s3.949495-3.004317-.105924-3.640446c-.717641-.112568-1.452466.040832-2.071332.421206-2.020376,1.241783-7.677621,4.099818-14.625832,2.305851-.510891-.131908-1.048432-.155001-1.55799-.018035-.788694.211996-1.274152.125559-1.155288,1.420798.090342.984447.792714,1.800658,1.740696,2.081063,2.717166.803716,9.04561,1.768764,17.775671-2.570438ZM279.125,175.031429c.010823-2.402326-.593213-2.192446-1.537457-2.368606-.696781-.129993-1.421496.09039-1.916536.597675-5.145268,5.272537-11.00883,5.189322-13.331392,4.899711-.755578-.094216-1.525485.115912-2.102446.612793-3.203155,2.758569,1.417831,3.968427,1.417831,3.968427,12.65.27,17.47-7.71,17.47-7.71Z"/>
        <path class="cls-1" d="M265.415,39.701429s-12.42,5.56-11.99,22.06c0,0-35-1.29-38.28,31.71,0,0-31.57,6.22-25.79,39.65,0,0,.93,10.32,10.64,14.37h37.02l.07-.01c.61,4.61,1.53,9.92,2.84,16.01,0,0-12.38,17.2-3.21,50.68,0,0-62.14-3.21-80.02,68.79,0,0-4.07-9.7-11.43-18.08-5.18-5.89-12.1-9.97-19.74-11.77-7.96-1.88-25.29-8.12-24.06-26.75.27-4.02-.2-8.08-1.72-11.81-.17-.41-.35-.81-.54-1.21-2.12-4.41-7.98-5.47-11.44-2.01-1.32,1.32-3.45,3.88-4.41,6.57-1.64,4.55-2.6,10.32-2.74,12.13-1.11,14.14,8.14,35.44,29.34,42.9,3.43,1.21,7.4,1.29,10.62,3.22,5.05,3.03,10.37,7.14,15.77,19.64.46,1.07.86,2.17,1.18,3.28.75,2.61,2.85,8.65,6.51,10.25-52.88-22.53-89.95-74.97-89.95-136.07,0-11.86,1.4-23.4,4.04-34.45l80.45-.19s14.45-1.72,10.32-22.24c-4.12-20.52-19.14-26.48-25.68-27.29-6.53-.8-12.27,2.07-12.27,2.07,0,0-4.47-22.28-16.68-19.22,26.96-28.64,65.22-46.52,107.66-46.52,22.73,0,44.26,5.13,63.49,14.29ZM215.365,177.491429c.02-5.67-4.35-10.46-10.02-10.7-2.88-.13-6.57.43-11.32,2.16.31-.31,5.54-5.57,4.79-6.8-.94-1.52-2.9.32-8.36,5.63,0,0-.26-8.08-2.45-9.54-.55-.37-1.31-.13-1.55.49-.36.92-.49,3.05.81,7.98,0,0-11.72-13.06-18.63-8.57,0,0-17.53,8.08-2.9,32.19,0,0-8.84,21.05,12.21,12.05,0,0,8.84,21.86,18.48-1.76,0,0,18.87-2.22,18.94-23.13ZM203.545,80.561429s4.82-4.2,0-12.08c-4.81-7.87-10.01-6.8-10.01-6.8,0,0-1.15-9.4-10.62-7.64,0,0-3.06-10.32-15.67-7.34,0,0-8.72,1.61-11.77,11.01,0,0-10.78-1.07-15.06,11,0,0-2.14,9.02,4.74,11.85h58.39ZM177.625,216.831429c0-2.67-2.17-4.84-4.84-4.84-2.68,0-4.84,2.17-4.84,4.84s2.16,4.84,4.84,4.84c2.67,0,4.84-2.17,4.84-4.84ZM164.365,227.341429c0-1.67-1.35-3.02-3.01-3.02-1.67,0-3.02,1.35-3.02,3.02,0,1.66,1.35,3.01,3.02,3.01,1.66,0,3.01-1.35,3.01-3.01ZM148.655,231.571429c0-1.25-1.02-2.27-2.27-2.27s-2.27,1.02-2.27,2.27c0,1.26,1.02,2.27,2.27,2.27s2.27-1.01,2.27-2.27ZM117.315,202.611429c0-1.1-.9-1.99-1.99-1.99-1.1,0-1.99.89-1.99,1.99,0,1.09.89,1.98,1.99,1.98,1.09,0,1.99-.89,1.99-1.98ZM108.305,198.161429c0-1.36-1.1-2.46-2.46-2.46s-2.46,1.1-2.46,2.46,1.1,2.46,2.46,2.46,2.46-1.1,2.46-2.46ZM100.645,184.121429c3.37-2.25,0-7.29,0-7.29,0,0,8.35-11.09-.81-16.66,0,0-3.82-2.79-9.59,3.8,0,0,.39-2.43,1.02-4.38,0,0-.05-2.31-1.71-.7,0,0-1.21,1.87-1.23,4.01,0,0-2.79-4.01-4.77-1.82,0,0-.81,1.34.53,1.29,0,0,1.34.48,3.16,2.46,0,0-10.92-3.27-10.92,4.72,0,0-1.13,5.73,8.41,11.35,0,0-.59,5.69,3.75,6.01,4.34.31,5.35-5.36,5.35-5.36,0,0,3.43,4.82,6.81,2.57ZM101.445,190.831429c0-2.17-1.75-3.92-3.92-3.92s-3.92,1.75-3.92,3.92c0,2.16,1.75,3.92,3.92,3.92s3.92-1.76,3.92-3.92Z"/>
        <path class="cls-5" d="M194.025,168.951429c4.75-1.73,8.44-2.29,11.32-2.16,5.67.24,10.04,5.03,10.02,10.7-.07,20.91-18.94,23.13-18.94,23.13-9.64,23.62-18.48,1.76-18.48,1.76-21.05,9-12.21-12.05-12.21-12.05-14.63-24.11,2.9-32.19,2.9-32.19,6.91-4.49,18.63,8.57,18.63,8.57-1.3-4.93-1.17-7.06-.81-7.98.24-.62,1-.86,1.55-.49,2.19,1.46,2.45,9.54,2.45,9.54,5.46-5.31,7.42-7.15,8.36-5.63.75,1.23-4.48,6.49-4.79,6.8Z"/>
        <circle class="cls-5" cx="172.785" cy="216.831429" r="4.84"/>
        <path class="cls-5" d="M161.355,224.321429c1.66,0,3.01,1.35,3.01,3.02,0,1.66-1.35,3.01-3.01,3.01-1.67,0-3.02-1.35-3.02-3.01,0-1.67,1.35-3.02,3.02-3.02Z"/>
        <circle class="cls-5" cx="146.385" cy="231.571429" r="2.27"/>
        <path class="cls-5" d="M115.325,200.621429c1.09,0,1.99.89,1.99,1.99,0,1.09-.9,1.98-1.99,1.98-1.1,0-1.99-.89-1.99-1.98,0-1.1.89-1.99,1.99-1.99Z"/>
        <circle class="cls-5" cx="105.845" cy="198.161429" r="2.46"/>
        <path class="cls-5" d="M100.645,176.831429s3.37,5.04,0,7.29c-3.38,2.25-6.81-2.57-6.81-2.57,0,0-1.01,5.67-5.35,5.36-4.34-.32-3.75-6.01-3.75-6.01-9.54-5.62-8.41-11.35-8.41-11.35,0-7.99,10.92-4.72,10.92-4.72-1.82-1.98-3.16-2.46-3.16-2.46-1.34.05-.53-1.29-.53-1.29,1.98-2.19,4.77,1.82,4.77,1.82.02-2.14,1.23-4.01,1.23-4.01,1.66-1.61,1.71.7,1.71.7-.63,1.95-1.02,4.38-1.02,4.38,5.77-6.59,9.59-3.8,9.59-3.8,9.16,5.57.81,16.66.81,16.66Z"/>
        <circle class="cls-5" cx="97.525" cy="190.831429" r="3.92"/>
      </g>
      <line class="cls-2" x1="194.025" y1="168.951429" x2="194.015" y2="168.961429"/>
    </g>
  </g>
</svg>