<?xml version="1.0" encoding="UTF-8"?>
<svg id="_レイヤー_2" data-name="レイヤー 2" xmlns="http://www.w3.org/2000/svg" viewBox="0 0 53.375 10">
  <g id="_レイヤー_1-2" data-name="レイヤー 1">
    <g>
      <path d="M.339421,9.332004c-.226281-.053174-.339421-.142905-.339421-.269192,1.333441-1.196411,2.54162-2.512463,3.624535-3.948156l-.836431-.618146v-.079761c.145466-.073114.343462-.089731.593987-.04985l.678843.299103c.646517-.744433,1.151608-1.548687,1.515274-2.412762l-1.27283-.289133c-.622273.7112-1.288993,1.332669-2.000162,1.864407h-.096978l-.218199-.309073-.181833-.04985v-.01994c.767739-.73114,1.511233-1.49219,2.230483-2.283151h.400032l.812187.648056c.549539,0,.99806.089731,1.345563.269192l.096978.299103-2.060773,2.851446-.49701.578265-2.93357,3.140578h-.218199l-.084855.289133-.557621.089731ZM6.376273,6.001994l.703087-.179462h1.212219l.181833-.04985.472765.229312.218199.548355v.558325l-.072733.059821v1.296112l-.618232.548355h-.521254c-.242444-.172815-.561662-.235959-.957653-.189432l-1.018264.368893-.048489.079761h-.303055l-.581865-.368893v-.129611l.084855-.03988v-.777667l.072733-.538385-.060611-.189432.060611-.03988v-.767697l.133344-.448654,1.042508.02991ZM7.891547,8.305085c.266688-.292456.400032-.584912.400032-.877368v-.797607l-.618232-.418744c-.598028,0-1.155649.156198-1.672862.468594l-.072733.299103.060611.199402-.060611.398804.060611.299103-.072733.319043c.218199.252576.541458.3556.969775.309073l1.006142-.199402Z"/>
      <path d="M12.880516,9.601196l-.533376-.209372-.1091-.259222.133344-.508475v-.847458l.242444-1.435693h-.351544l-.266688.079761-.666721.787637-.60611.099701-.303055-.159521-.169711-.348953c.808146-.618146,1.640537-1.322699,2.497171-2.113659v-.448654l-.472765-.159521-.448521.129611h-.921287l-.400032-.209372-.048489-.289133.072733-.059821h.848553l.38791.04985.969775-.259222.169711-.538385v-.757727l-.060611-.149551.024244-.069791.49701-.059821.460643.219342.060611.319043-.145466.767697.38791.169492.800065-.129611.448521.219342.048489.159521-.290933.179462h-1.018264l-.424277.219342-.1091.099701v.707876c.371747.525091.893001.890661,1.563763,1.09671l.460643.069791.084855-.199402.509132-.099701.533376.04985.157588-.089731v-.717846l-.072733-.329013v-.01994h.763698l.230322.189432v.927218l.509132.279163h.957653l.290933-.229312v-.628116l.339421-.099701c.315177,0,.529336.079761.642476.239282l.096978.588235h.60611l.448521-.109671h.872798l.27881.089731v.279163c-.11314.126288-.27881.189432-.49701.189432h-.836431l-1.103119.269192-.569743,1.954138.509132.089731.363666-.069791.49701.219342v.089731c-.121222.139581-.286892.219342-.49701.239282h-1.078875c-.193955.159521-.432358.222665-.715209.189432-.638435-.471918-1.301115-.867398-1.988039-1.186441l-.38791-.608175.121222-.358923v-.667996l-.872798-.229312-.242444.259222h-.424277l-1.49103-.638086-.206077.338983v.707876l-.072733.079761v.967099l-.072733.069791v.997009l.060611.478564-.472765.139581ZM17.317238,3.898305l-.581865-.269192-.121222-.319043v-.618146l-.27881-.957129.593987-.149551.351544.239282c.105059.671319.250525,1.312728.436399,1.924227l-.400032.149551ZM18.808267,8.245264c.258607-.505151.44044-1.070123.545499-1.694915-.412155-.139581-.860676-.209372-1.345563-.209372l-.412155.348953-.072733.787637c.210118.398804.589947.687936,1.139486.867398l.145466-.099701ZM18.529457,3.818544l-.218199-.229312v-1.266201l-.145466-.458624.024244-.04985h.593987l.242444.099701.121222.149551v1.026919l.060611.289133-.060611.239282.036367.119641-.424277.099701-.096978-.089731-.133344.069791ZM19.70531,4.267198c-.129303-.053174-.173751-.182785-.133344-.388833l1.006142-2.19342h.557621l.303055.209372v.299103l-1.078875,1.964108-.654598.109671Z"/>
      <path d="M25.099341,9.511466l-.363666-.289133v-.289133c.808146-1.44234,1.450622-3.017614,1.927428-4.725823l-.472765-.089731-1.672862.338983c-.371747-.093054-.585906-.265869-.642476-.518445.945531-.166168,2.012284-.32569,3.200259-.478564l.38791-1.834497h.727332c.202037.112994.282851.285809.242444.518445l-.375788,1.13659c.27477.192755.569743.259222.88492.199402l1.454663-.239282.703087.199402.133344.299103-.400032.169492h-.933409l-.254566.069791-.569743-.069791-.096978.069791h-1.006142c-.323258.432037-.557621.890661-.703087,1.375872.460643.199402.860676.448654,1.200097.747757.864716.930542,1.895103,1.598538,3.091159,2.003988l.690965.279163v.01994l-.642476.239282c-1.05059-.232635-1.979958-.684613-2.788104-1.355932l-.133344-.249252-.230322-.059821-.824309-.877368h-.509132l-1.503152,3.35992-.521254.04985Z"/>
      <path d="M33.618212,5.324028l-.27881-.249252v-.817547l.436399-1.884347.157588-.03988.981898.279163.121222-.348953-.448521-1.535394c.121222-.079761.294973-.099701.521254-.059821l.327299.259222.339421,1.455633.678843.079761,1.212219-.299103v-.289133l-.363666-1.615155.315177-.089731.448521.319043.400032,1.555334.545499.089731.727332-.219342c.218199-.638086.395992-1.252908.533376-1.844467l.266688-.02991.38791.518445-.327299,1.246261.254566.209372h1.175853l.460643.219342.133344.299103v.677966l-.412155,1.186441-.424277.099701-.181833-.079761v-.348953l.254566-1.306082-.121222-.299103-.824309-.069791-5.41862.707876h-1.042508l-.351544.608175v.907278l-.060611.329013.048489.209372-.145466.169492h-.327299ZM37.970078,9.890329l-.375788-.209372v-.259222c.452562-.418744.743494-.923895.872798-1.515454l-.472765-.099701-1.87894.388833h-1.030386l-.375788-.259222v-.229312l.484888-.089731.315177.059821,2.93357-.538385v-.358923c-.525295-.285809-1.05059-.488534-1.575885-.608175l-.096978-.319043c.60611-.206049,1.204138-.525091,1.794084-.957129l.181833-.368893-.99402-.089731-1.515274.179462-.448521-.209372-.048489-.199402c.436399-.099701.925327-.172815,1.466785-.219342h1.612251c.379829,0,.695006.106348.945531.319043l.072733.289133c-.33134.378863-.71925.7112-1.16373.997009l-.266688.079761-.133344.309073,1.115242.857428h.472765c.476806-.172815.981898-.279163,1.515274-.319043.202037.026587.286892.129611.254566.309073-.622273.272516-1.317278.525091-2.085017.757727-.226281.77102-.581865,1.48222-1.066753,2.133599-.169711.139581-.339421.196078-.509132.169492Z"/>
      <path d="M45.956219,5.623131l-.509132.498504h-.460643c-.177792-.106348-.246485-.255899-.206077-.448654l1.006142-1.874377h-.593987l-.27881.059821-.739454-.279163-.060611-.219342.084855-.059821h.654598l.060611.059821h1.030386l.303055-.079761.169711-.737787-1.418296-.279163-.521254.558325h-.375788l-.375788-.149551v-.299103c.638435-.870721,1.361726-1.661682,2.169872-2.372881l.49701.169492.133344.289133.27881.079761h.812187l.618232.279163.060611.368893c-.436399.963775-.957653,1.954138-1.563763,2.971087h.739454l.060611-.069791h1.054631l.060611-.059821h.739454l1.200097-1.375872-1.151608-.767697v-.139581l.448521-.199402.024244.059821c.379829.225989.791983.40545,1.236464.538385l.121222-.099701c.266688-.206049.428317-.471918.484888-.797607l-.77582-.069791-1.066753.129611-.084855-.03988c-.250525.013293-.428317-.059821-.533376-.219342l-.060611-.309073h.824309l.072733-.059821h2.885082l.315177.249252v.249252l-.036367.059821h-.145466l-1.042508,1.326022c.404073.232635.787942.40545,1.151608.518445l.121222.309073-.472765.109671-1.454663-.388833-.472765.687936.933409.378863v.089731l-.509132.199402h-1.006142l-.072733.079761h-1.903184l-.060611.04985h-1.054631l-.751576-.348953-.60611,1.425723.012122-.04985ZM45.641042,9.152542l-.49701-.219342v-.358923l1.87894-1.754736h.133344l.545499.338983v.159521l-1.539518,1.774676-.521254.059821ZM46.841139,2.023928l.412155-.847458-.242444-.179462h-1.066753l-.448521.797607,1.212219.348953.133344-.119641ZM49.011011,10l-.375788-.309073v-.588235l.193955-1.12662v-.648056l.084855-.04985v-.827517l.1091-.358923-.630354-.169492-1.321319.249252-.763698-.289133-.072733-.149551.230322-.059821c1.099079-.086407,2.133506-.269192,3.103281-.548355l.351544.109671,1.806207-.289133h.739454l.145466.348953c-.711169.186108-1.527396.338983-2.448683.458624l-.327299.618146.060611.289133-.060611.03988v.737787l-.084855.04985v.697906l-.072733.04985v.677966l-.060611.319043.060611.239282-.181833.478564-.484888.04985ZM52.98709,8.654038c-.711169-.378863-1.426378-.807577-2.145628-1.286142l-.060611-.229312.084855-.079761h.666721l1.794084,1.246261v.249252l-.339421.099701Z"/>
    </g>
  </g>
</svg>