<?xml version="1.0" encoding="UTF-8"?>
<svg id="_レイヤー_2" data-name="レイヤー 2" xmlns="http://www.w3.org/2000/svg" viewBox="0 0 57.169922 5.792812">
  <defs>
    <style>
      .cls-1 {
        fill: #68be8d;
      }
    </style>
  </defs>
  <g id="_レイヤー_1-2" data-name="レイヤー 1">
    <g>
      <path class="cls-1" d="M1.183594,5.53125c-.289062-.019531-.529297-.134766-.720703-.345703-.253906-.40625-.408203-.859375-.462891-1.359375l.023438-.117188-.023438-.175781C.132812,2.529297.480469,1.611328,1.042969.779297c.113281-.117188.248047-.175781.404297-.175781.308594.078125.578125.234375.808594.46875l.029297.082031.146484.087891c.269531.367188.394531.802734.375,1.306641l-.029297.146484.029297.082031-.029297.029297v.410156c-.035156.714844-.265625,1.351562-.691406,1.910156-.253906.230469-.554688.365234-.902344.404297ZM1.59375,4.980469l.228516-.169922v-.087891l-.228516-.521484h-.058594l-.351562.345703h-.169922l-.263672-.175781c-.078125-.132812-.117188-.287109-.117188-.462891.078125-.773438.349609-1.46875.814453-2.085938l.287109-.029297.205078.175781c.039062.269531.087891.529297.146484.779297l-.175781.726562v.580078l.087891.292969h.087891c.191406-.445312.316406-.929688.375-1.453125v-.609375l-.029297-.029297v-.287109c-.019531-.269531-.154297-.501953-.404297-.697266-.15625-.152344-.330078-.248047-.521484-.287109l-.175781.087891c-.519531.808594-.837891,1.707031-.955078,2.695312l.029297.029297v.287109c.058594.347656.183594.666016.375.955078.117188.097656.251953.146484.404297.146484l.410156-.205078ZM1.072266,4.113281c.367188-.445312.578125-.947266.632812-1.505859v-.322266l-.111328-.029297c-.367188.542969-.570312,1.152344-.609375,1.828125l.058594.058594.029297-.029297Z"/>
      <path class="cls-1" d="M5.173828,5.460938c-.109375-.03125-.164062-.083984-.164062-.158203.644531-.703125,1.228516-1.476562,1.751953-2.320312l-.404297-.363281v-.046875c.070312-.042969.166016-.052734.287109-.029297l.328125.175781c.3125-.4375.556641-.910156.732422-1.417969l-.615234-.169922c-.300781.417969-.623047.783203-.966797,1.095703h-.046875l-.105469-.181641-.087891-.029297v-.011719c.371094-.429688.730469-.876953,1.078125-1.341797h.193359l.392578.380859c.265625,0,.482422.052734.650391.158203l.046875.175781-.996094,1.675781-.240234.339844-1.417969,1.845703h-.105469l-.041016.169922-.269531.052734ZM8.091797,3.503906l.339844-.105469h.585938l.087891-.029297.228516.134766.105469.322266v.328125l-.035156.035156v.761719l-.298828.322266h-.251953c-.117188-.101562-.271484-.138672-.462891-.111328l-.492188.216797-.023438.046875h-.146484l-.28125-.216797v-.076172l.041016-.023438v-.457031l.035156-.316406-.029297-.111328.029297-.023438v-.451172l.064453-.263672.503906.017578ZM8.824219,4.857422c.128906-.171875.193359-.34375.193359-.515625v-.46875l-.298828-.246094c-.289062,0-.558594.091797-.808594.275391l-.035156.175781.029297.117188-.029297.234375.029297.175781-.035156.1875c.105469.148438.261719.208984.46875.181641l.486328-.117188Z"/>
      <path class="cls-1" d="M11.666016,5.619141l-.257812-.123047-.052734-.152344.064453-.298828v-.498047l.117188-.84375h-.169922l-.128906.046875-.322266.462891-.292969.058594-.146484-.09375-.082031-.205078c.390625-.363281.792969-.777344,1.207031-1.242188v-.263672l-.228516-.09375-.216797.076172h-.445312l-.193359-.123047-.023438-.169922.035156-.035156h.410156l.1875.029297.46875-.152344.082031-.316406v-.445312l-.029297-.087891.011719-.041016.240234-.035156.222656.128906.029297.1875-.070312.451172.1875.099609.386719-.076172.216797.128906.023438.09375-.140625.105469h-.492188l-.205078.128906-.052734.058594v.416016c.179688.308594.431641.523438.755859.644531l.222656.041016.041016-.117188.246094-.058594.257812.029297.076172-.052734v-.421875l-.035156-.193359v-.011719h.369141l.111328.111328v.544922l.246094.164062h.462891l.140625-.134766v-.369141l.164062-.058594c.152344,0,.255859.046875.310547.140625l.046875.345703h.292969l.216797-.064453h.421875l.134766.052734v.164062c-.054688.074219-.134766.111328-.240234.111328h-.404297l-.533203.158203-.275391,1.148438.246094.052734.175781-.041016.240234.128906v.052734c-.058594.082031-.138672.128906-.240234.140625h-.521484c-.09375.09375-.208984.130859-.345703.111328-.308594-.277344-.628906-.509766-.960938-.697266l-.1875-.357422.058594-.210938v-.392578l-.421875-.134766-.117188.152344h-.205078l-.720703-.375-.099609.199219v.416016l-.035156.046875v.568359l-.035156.041016v.585938l.029297.28125-.228516.082031ZM13.810547,2.267578l-.28125-.158203-.058594-.1875v-.363281l-.134766-.5625.287109-.087891.169922.140625c.050781.394531.121094.771484.210938,1.130859l-.193359.087891ZM14.53125,4.822266c.125-.296875.212891-.628906.263672-.996094-.199219-.082031-.416016-.123047-.650391-.123047l-.199219.205078-.035156.462891c.101562.234375.285156.404297.550781.509766l.070312-.058594ZM14.396484,2.220703l-.105469-.134766v-.744141l-.070312-.269531.011719-.029297h.287109l.117188.058594.058594.087891v.603516l.029297.169922-.029297.140625.017578.070312-.205078.058594-.046875-.052734-.064453.041016ZM14.964844,2.484375c-.0625-.03125-.083984-.107422-.064453-.228516l.486328-1.289062h.269531l.146484.123047v.175781l-.521484,1.154297-.316406.064453Z"/>
      <path class="cls-1" d="M17.970703,5.566406l-.175781-.169922v-.169922c.390625-.847656.701172-1.773438.931641-2.777344l-.228516-.052734-.808594.199219c-.179688-.054688-.283203-.15625-.310547-.304688.457031-.097656.972656-.191406,1.546875-.28125l.1875-1.078125h.351562c.097656.066406.136719.167969.117188.304688l-.181641.667969c.132812.113281.275391.152344.427734.117188l.703125-.140625.339844.117188.064453.175781-.193359.099609h-.451172l-.123047.041016-.275391-.041016-.046875.041016h-.486328c-.15625.253906-.269531.523438-.339844.808594.222656.117188.416016.263672.580078.439453.417969.546875.916016.939453,1.494141,1.177734l.333984.164062v.011719l-.310547.140625c-.507812-.136719-.957031-.402344-1.347656-.796875l-.064453-.146484-.111328-.035156-.398438-.515625h-.246094l-.726562,1.974609-.251953.029297Z"/>
      <path class="cls-1" d="M23.472656,3.105469l-.134766-.146484v-.480469l.210938-1.107422.076172-.023438.474609.164062.058594-.205078-.216797-.902344c.058594-.046875.142578-.058594.251953-.035156l.158203.152344.164062.855469.328125.046875.585938-.175781v-.169922l-.175781-.949219.152344-.052734.216797.1875.193359.914062.263672.052734.351562-.128906c.105469-.375.191406-.736328.257812-1.083984l.128906-.017578.1875.304688-.158203.732422.123047.123047h.568359l.222656.128906.064453.175781v.398438l-.199219.697266-.205078.058594-.087891-.046875v-.205078l.123047-.767578-.058594-.175781-.398438-.041016-2.619141.416016h-.503906l-.169922.357422v.533203l-.029297.193359.023438.123047-.070312.099609h-.158203ZM25.576172,5.789062l-.181641-.123047v-.152344c.21875-.246094.359375-.542969.421875-.890625l-.228516-.058594-.908203.228516h-.498047l-.181641-.152344v-.134766l.234375-.052734.152344.035156,1.417969-.316406v-.210938c-.253906-.167969-.507812-.287109-.761719-.357422l-.046875-.1875c.292969-.121094.582031-.308594.867188-.5625l.087891-.216797-.480469-.052734-.732422.105469-.216797-.123047-.023438-.117188c.210938-.058594.447266-.101562.708984-.128906h.779297c.183594,0,.335938.0625.457031.1875l.035156.169922c-.160156.222656-.347656.417969-.5625.585938l-.128906.046875-.064453.181641.539062.503906h.228516c.230469-.101562.474609-.164062.732422-.1875.097656.015625.138672.076172.123047.181641-.300781.160156-.636719.308594-1.007812.445312-.109375.453125-.28125.871094-.515625,1.253906-.082031.082031-.164062.115234-.246094.099609Z"/>
      <path class="cls-1" d="M31.611328,5.724609l-.152344-.117188-.058594-.152344v-.597656l-.029297-.029297v-.333984l.029297-.146484-.029297-.181641.029297-.029297v-.480469l-.117188-.058594-.181641.058594h-.298828l-.960938.152344c-.140625-.082031-.201172-.203125-.181641-.363281l.123047-.058594h.328125l.626953-.117188h.421875l.210938-.064453.029297-.029297v-.357422l-.029297-.029297v-.333984l-.087891-.210938-.09375-.029297-.779297.210938h-.392578c-.136719-.097656-.195312-.236328-.175781-.416016l.087891-.035156h.451172l.451172-.087891h.328125l.123047-.058594.029297-.123047-.152344-.75v-.298828l.269531-.029297c.140625.101562.210938.220703.210938.357422l-.029297.210938.087891.603516.298828.029297.544922-.058594.175781.146484v.152344l-.087891.117188-.152344.029297-.210938-.058594h-.328125l-.181641.058594-.029297.029297v.304688l.029297.029297v.386719l.064453.181641h.240234l.779297-.181641h.357422l.181641.152344v.152344c-.300781.097656-.621094.166016-.960938.205078h-.328125l-.269531.09375-.029297.029297v.539062l-.035156.152344.035156.029297v.626953l.087891.333984-.029297.029297v.328125l-.240234.087891Z"/>
      <path class="cls-1" d="M37.277344,5.660156l-.175781-.146484-.175781-.826172v-.292969l-.087891-.351562-.087891-.029297c-.234375.175781-.488281.292969-.761719.351562l-.181641-.175781v-.117188l.943359-.445312.029297-.087891-.175781-.849609c.058594-.097656.146484-.126953.263672-.087891l.175781.175781.117188.673828.087891.029297c.433594-.15625.875-.273438,1.324219-.351562h.292969l.152344.146484v.087891c-.140625.375-.357422.71875-.650391,1.03125-.15625.136719-.332031.205078-.527344.205078l-.117188-.087891v-.146484l.351562-.234375c.175781-.195312.302734-.412109.380859-.650391h-.146484l-1.060547.357422-.029297.146484c.058594.527344.158203,1.046875.298828,1.558594l-.240234.117188Z"/>
      <path class="cls-1" d="M43.042969,3.732422l-.328125-.328125c-.355469-.453125-.671875-.917969-.949219-1.394531.101562-.097656.220703-.126953.357422-.087891.335938.414062.671875.839844,1.007812,1.277344l.09375.175781v.298828l-.181641.058594ZM42.75,5.396484l-.240234-.269531c.59375-.394531,1.177734-.800781,1.751953-1.21875h.058594l.029297-.087891c.316406-.257812.664062-.455078,1.042969-.591797l.029297.146484c-.714844.695312-1.46875,1.330078-2.261719,1.904297h-.058594l-.029297.087891-.029297.029297h-.292969Z"/>
      <path class="cls-1" d="M47.578125,5.642578l-.146484-.087891-.058594-.410156c.253906-.863281.488281-1.726562.703125-2.589844l.263672-.029297.146484.117188.029297.205078c-.253906.824219-.498047,1.658203-.732422,2.501953l.058594.205078-.263672.087891ZM50.666016,5.291016l-.117188-.058594c-.394531-.707031-.738281-1.433594-1.03125-2.179688.078125-.058594.166016-.078125.263672-.058594l.175781.146484c.21875.589844.494141,1.158203.826172,1.705078l.087891.146484.087891.181641c-.078125.097656-.175781.136719-.292969.117188ZM50.841797,3.140625l-.263672-.263672c-.175781-.058594-.34375-.15625-.503906-.292969-.234375-.234375-.361328-.509766-.380859-.826172l.439453-.556641h.064453l.029297-.087891c.214844-.195312.449219-.332031.703125-.410156h.292969c.195312.039062.363281.146484.503906.322266.195312.234375.283203.517578.263672.849609-.019531.335938-.158203.621094-.416016.855469l-.087891.029297-.087891.146484c-.15625.15625-.341797.234375-.556641.234375ZM51.105469,2.583984c.234375-.214844.390625-.460938.46875-.738281v-.380859l-.205078-.322266-.292969-.058594c-.410156.175781-.724609.46875-.943359.878906v.087891l.298828.416016c.175781.097656.371094.15625.585938.175781l.087891-.058594Z"/>
      <path class="cls-1" d="M54.380859,5.607422l-.210938-.123047-.058594-.298828c.621094-.917969,1.230469-1.847656,1.828125-2.789062h-.181641l-1.464844.298828-.240234-.210938v-.146484l.087891-.09375h.328125c.640625-.117188,1.28125-.216797,1.921875-.298828l.240234.152344.029297.210938c-.359375.457031-.699219.935547-1.019531,1.435547l.087891.181641c.460938.339844.931641.660156,1.412109.960938l.029297.210938-.240234.087891c-.519531-.359375-1.048828-.71875-1.587891-1.078125-.300781.480469-.582031.970703-.84375,1.470703l-.117188.029297Z"/>
    </g>
  </g>
</svg>