<?xml version="1.0" encoding="UTF-8"?>
<svg id="_レイヤー_2" data-name="レイヤー 2" xmlns="http://www.w3.org/2000/svg" viewBox="0 0 67.40625 5.050781">
  <defs>
    <style>
      .cls-1 {
        fill: #68be8d;
      }
    </style>
  </defs>
  <g id="_レイヤー_1-2" data-name="レイヤー 1">
    <g>
      <path class="cls-1" d="M.556641,4.916016c-.195312,0-.361328-.066406-.498047-.199219l-.058594-.175781c.625-.972656,1.111328-2.001953,1.458984-3.087891-.117188-.097656-.263672-.136719-.439453-.117188l-.462891.234375-.234375-.146484-.058594-.175781c.175781-.117188.371094-.205078.585938-.263672h.287109c.273438.019531.507812.136719.703125.351562l.029297.029297v.410156c-.371094.929688-.808594,1.832031-1.3125,2.707031l.058594.058594h.462891c.117188-.097656.253906-.146484.410156-.146484.078125.078125.117188.175781.117188.292969-.136719.152344-.3125.228516-.527344.228516h-.521484Z"/>
      <path class="cls-1" d="M3.498047,4.927734l-.316406-.140625-.146484-.287109v-.544922l.029297-.029297v-.316406c.097656-.957031.384766-1.837891.861328-2.642578l.257812-.029297.146484.117188.029297.140625.228516.146484c.09375.152344.150391.324219.169922.515625v.574219l-.029297.029297v.287109c-.132812.746094-.439453,1.425781-.919922,2.039062l-.310547.140625ZM3.521484,4.5c.210938-.230469.375-.488281.492188-.773438.191406-.402344.314453-.84375.369141-1.324219v-.574219l-.082031-.169922-.205078-.087891c-.285156.554688-.484375,1.138672-.597656,1.751953v.287109l-.058594.199219v.462891l-.029297.140625.087891.117188.023438-.029297Z"/>
      <path class="cls-1" d="M6.556641,4.916016c-.195312,0-.361328-.066406-.498047-.199219l-.058594-.175781c.625-.972656,1.111328-2.001953,1.458984-3.087891-.117188-.097656-.263672-.136719-.439453-.117188l-.462891.234375-.234375-.146484-.058594-.175781c.175781-.117188.371094-.205078.585938-.263672h.287109c.273438.019531.507812.136719.703125.351562l.029297.029297v.410156c-.371094.929688-.808594,1.832031-1.3125,2.707031l.058594.058594h.462891c.117188-.097656.253906-.146484.410156-.146484.078125.078125.117188.175781.117188.292969-.136719.152344-.3125.228516-.527344.228516h-.521484Z"/>
      <path class="cls-1" d="M9.451172,4.839844l-.234375-.169922-.029297-.205078.234375-.175781.205078.146484.345703-.351562c.136719-.25.214844-.521484.234375-.814453l-.087891-.117188h-.146484l-.345703.234375-.146484.205078-.175781.029297-.234375-.205078v-.234375l.029297-.029297v-.345703l.029297-.029297v-.439453l.029297-.029297v-.292969l.029297-.029297v-.345703l.029297-.175781-.029297-.029297v-.439453l.029297-.029297h.292969l.316406.058594.117188-.058594h.527344l.175781.117188.029297.117188-.351562.117188-.146484-.029297-.550781.205078-.029297.029297v.345703l-.029297.029297v.380859l-.058594.322266v.316406h.087891l.257812-.111328h.322266c.136719.035156.253906.111328.351562.228516l.087891.380859c-.058594.503906-.283203.931641-.673828,1.283203-.132812.132812-.296875.179688-.492188.140625Z"/>
      <path class="cls-1" d="M12.216797,4.962891l-.199219-.128906-.017578-.263672c.394531-1.523438.916016-3,1.564453-4.429688l.234375-.017578.117188.064453.011719.263672c-.613281,1.234375-1.095703,2.537109-1.447266,3.908203l-.029297.556641-.234375.046875Z"/>
      <path class="cls-1" d="M15.732422,4.939453l-.005859-.029297c-.128906-.097656-.183594-.224609-.164062-.380859.074219-1.269531.177734-2.517578.310547-3.744141l.257812-.058594.193359.146484.017578.117188c-.171875,1.109375-.28125,2.25-.328125,3.421875l.041016.292969-.035156.175781-.287109.058594Z"/>
      <path class="cls-1" d="M18.732422,4.939453l-.005859-.029297c-.128906-.097656-.183594-.224609-.164062-.380859.074219-1.269531.177734-2.517578.310547-3.744141l.257812-.058594.193359.146484.017578.117188c-.171875,1.109375-.28125,2.25-.328125,3.421875l.041016.292969-.035156.175781-.287109.058594Z"/>
      <path class="cls-1" d="M21.216797,4.962891l-.199219-.128906-.017578-.263672c.394531-1.523438.916016-3,1.564453-4.429688l.234375-.017578.117188.064453.011719.263672c-.613281,1.234375-1.095703,2.537109-1.447266,3.908203l-.029297.556641-.234375.046875Z"/>
      <path class="cls-1" d="M24.556641,4.916016c-.195312,0-.361328-.066406-.498047-.199219l-.058594-.175781c.625-.972656,1.111328-2.001953,1.458984-3.087891-.117188-.097656-.263672-.136719-.439453-.117188l-.462891.234375-.234375-.146484-.058594-.175781c.175781-.117188.371094-.205078.585938-.263672h.287109c.273438.019531.507812.136719.703125.351562l.029297.029297v.410156c-.371094.929688-.808594,1.832031-1.3125,2.707031l.058594.058594h.462891c.117188-.097656.253906-.146484.410156-.146484.078125.078125.117188.175781.117188.292969-.136719.152344-.3125.228516-.527344.228516h-.521484Z"/>
      <path class="cls-1" d="M27.556641,4.916016c-.195312,0-.361328-.066406-.498047-.199219l-.058594-.175781c.625-.972656,1.111328-2.001953,1.458984-3.087891-.117188-.097656-.263672-.136719-.439453-.117188l-.462891.234375-.234375-.146484-.058594-.175781c.175781-.117188.371094-.205078.585938-.263672h.287109c.273438.019531.507812.136719.703125.351562l.029297.029297v.410156c-.371094.929688-.808594,1.832031-1.3125,2.707031l.058594.058594h.462891c.117188-.097656.253906-.146484.410156-.146484.078125.078125.117188.175781.117188.292969-.136719.152344-.3125.228516-.527344.228516h-.521484Z"/>
      <path class="cls-1" d="M31.042969,4.992188c-.34375-.402344-.535156-.871094-.574219-1.40625v-.433594l-.029297-.029297v-.427734c.058594-.902344.318359-1.726562.779297-2.472656l.140625-.029297.199219.146484v.169922c-.402344.652344-.640625,1.361328-.714844,2.126953v.287109l-.029297.140625.029297.029297v.433594c.019531.382812.144531.726562.375,1.03125l.111328.029297c.078125.078125.107422.173828.087891.287109-.117188.078125-.242188.117188-.375.117188Z"/>
      <path class="cls-1" d="M34.839844,4.933594c-.152344-.09375-.228516-.183594-.228516-.269531l1.804688-.310547.169922-.263672v-1.166016l-.369141-.123047-.638672.140625-.316406-.222656-.017578-.070312.117188-.087891h1.060547l.199219-.064453v-.638672l-.064453-.328125c.109375-.058594.248047-.087891.416016-.087891l.082031.339844v.603516l.140625.128906h1.447266l.164062.105469.029297.128906-.128906.158203h-.076172l-.363281-.105469h-.697266l-.199219-.029297-.228516.117188-.117188.1875v1.107422l.140625.134766h1.371094l.046875-.041016h.498047l.123047-.041016.375.146484.023438.099609-.175781.123047h-.404297l-.041016-.029297h-.498047l-.052734.029297h-.814453l-.035156.029297h-.972656l-1.769531.298828Z"/>
      <path class="cls-1" d="M42.708984,5.050781l-.058594-.029297-.140625-.275391.111328-.058594c.207031-.390625.328125-.818359.363281-1.283203v-.416016l.029297-.029297v-.556641l.029297-.029297v-.697266c0-.464844-.140625-.875-.421875-1.230469-.128906-.054688-.220703-.146484-.275391-.275391V.052734l.246094-.052734c.28125.1875.486328.419922.615234.697266.113281.316406.179688.650391.199219,1.001953v1.148438l-.029297.029297v.527344c-.054688.578125-.195312,1.117188-.421875,1.617188l-.164062.029297-.058594-.029297-.023438.029297Z"/>
      <path class="cls-1" d="M45.316406,4.792969l-.175781-.087891-.087891-.351562c.039062-.15625.097656-.283203.175781-.380859h.46875l.175781.146484v.117188c-.039062.195312-.136719.371094-.292969.527344l-.263672.029297Z"/>
      <path class="cls-1" d="M48.556641,4.916016c-.195312,0-.361328-.066406-.498047-.199219l-.058594-.175781c.625-.972656,1.111328-2.001953,1.458984-3.087891-.117188-.097656-.263672-.136719-.439453-.117188l-.462891.234375-.234375-.146484-.058594-.175781c.175781-.117188.371094-.205078.585938-.263672h.287109c.273438.019531.507812.136719.703125.351562l.029297.029297v.410156c-.371094.929688-.808594,1.832031-1.3125,2.707031l.058594.058594h.462891c.117188-.097656.253906-.146484.410156-.146484.078125.078125.117188.175781.117188.292969-.136719.152344-.3125.228516-.527344.228516h-.521484Z"/>
      <path class="cls-1" d="M51.46875,4.863281c-.132812-.078125-.189453-.185547-.169922-.322266l.228516-.199219.263672-.117188c.230469-.367188.394531-.753906.492188-1.160156l-.263672-.087891-.462891.410156-.175781.029297-.199219-.175781v-.175781c.464844-.40625.8125-.878906,1.042969-1.417969l.029297-.292969-.345703-.058594c-.214844.078125-.427734.146484-.638672.205078-.117188-.078125-.166016-.193359-.146484-.345703.25-.136719.529297-.205078.837891-.205078.214844.019531.408203.097656.580078.234375.097656.113281.136719.257812.117188.433594-.152344.347656-.316406.685547-.492188,1.013672.175781.019531.330078.097656.462891.234375l.058594.082031v.322266c-.136719.5-.388672.962891-.755859,1.388672l-.228516.205078h-.234375Z"/>
      <path class="cls-1" d="M55.042969,4.992188c-.34375-.402344-.535156-.871094-.574219-1.40625v-.433594l-.029297-.029297v-.427734c.058594-.902344.318359-1.726562.779297-2.472656l.140625-.029297.199219.146484v.169922c-.402344.652344-.640625,1.361328-.714844,2.126953v.287109l-.029297.140625.029297.029297v.433594c.019531.382812.144531.726562.375,1.03125l.111328.029297c.078125.078125.107422.173828.087891.287109-.117188.078125-.242188.117188-.375.117188Z"/>
      <path class="cls-1" d="M59.712891,4.904297l-.28125-.181641-.082031-.421875c.085938-.152344.128906-.326172.128906-.521484v-1.007812l.064453-.234375v-.761719l.046875-.199219-.046875-.058594v-.404297l.164062-.099609.269531.087891.152344.210938h.603516l.076172-.029297.105469.070312h1.078125l.117188-.041016.304688.087891.035156.193359-.046875.035156v1.207031l.046875.035156v.521484l-.046875.041016v.685547l-.369141.433594-.644531.105469h-1.013672l-.269531-.046875-.322266.292969h-.070312ZM61.892578,4.21875l.134766-.421875v-.556641l-.164062-.210938h-.785156l-.134766.029297-.181641-.035156-.046875.035156h-.691406l-.181641.169922v.515625l-.029297.416016.240234.216797h.65625l.240234.041016.111328-.041016.228516.041016.603516-.199219ZM61.96875,2.736328l.058594-.087891v-.808594l-.210938-.263672h-1.828125l-.058594.392578v.679688l.117188.164062h.779297l.035156-.035156h.416016l.035156.035156h.591797l.064453-.076172Z"/>
      <path class="cls-1" d="M66.708984,5.050781l-.058594-.029297-.140625-.275391.111328-.058594c.207031-.390625.328125-.818359.363281-1.283203v-.416016l.029297-.029297v-.556641l.029297-.029297v-.697266c0-.464844-.140625-.875-.421875-1.230469-.128906-.054688-.220703-.146484-.275391-.275391V.052734l.246094-.052734c.28125.1875.486328.419922.615234.697266.113281.316406.179688.650391.199219,1.001953v1.148438l-.029297.029297v.527344c-.054688.578125-.195312,1.117188-.421875,1.617188l-.164062.029297-.058594-.029297-.023438.029297Z"/>
    </g>
  </g>
</svg>