<?xml version="1.0" encoding="UTF-8"?>
<svg id="_レイヤー_2" data-name="レイヤー 2" xmlns="http://www.w3.org/2000/svg" viewBox="0 0 85 24">
  <defs>
    <style>
      .cls-1 {
        fill: #68be8d;
      }
    </style>
  </defs>
  <g id="_レイヤー_1-2" data-name="レイヤー 1">
    <g>
      <path class="cls-1" d="M1.113332,10.706497c-.390643,0-.722689-.144625-.99614-.433875l-.117193-.382831c1.250057-2.118329,2.222758-4.360015,2.918103-6.725058-.234386-.212684-.527368-.297757-.878947-.25522l-.925824.510441-.468772-.319026-.117193-.382831c.351579-.25522.742222-.446636,1.171929-.574246h.574245c.5469.042537,1.015672.297757,1.406315.765661l.058596.063805v.893271c-.742222,2.024749-1.617262,3.989946-2.625121,5.895592l.117193.12761h.925824c.234386-.212684.507836-.319026.82035-.319026.156257.170147.234386.382831.234386.638051-.27345.331787-.625029.49768-1.054736.49768h-1.043017Z"/>
      <path class="cls-1" d="M5.676042,10.732019l-.632842-.306265-.292982-.62529v-1.186775l.058596-.063805v-.689095c.195321-2.0843.769567-4.002707,1.722735-5.75522l.515649-.063805.292982.25522.058596.306265.457052.319026c.187509.331787.300795.70611.339859,1.12297v1.25058l-.058596.063805v.62529c-.265637,1.624903-.878947,3.105182-1.839928,4.440835l-.621122.306265ZM5.722919,9.800464c.421894-.501933.750034-1.063418.98442-1.684455.38283-.876257.628935-1.837587.738315-2.883991v-1.25058l-.16407-.37007-.410175-.191415c-.570339,1.208043-.968795,2.479892-1.195367,3.815545v.62529l-.117193.433875v1.008121l-.058596.306265.175789.25522.046877-.063805Z"/>
      <path class="cls-1" d="M10.375477,10.706497c-.390643,0-.722689-.144625-.99614-.433875l-.117193-.382831c1.250057-2.118329,2.222758-4.360015,2.918103-6.725058-.234386-.212684-.527368-.297757-.878947-.25522l-.925824.510441-.468772-.319026-.117193-.382831c.351579-.25522.742222-.446636,1.171929-.574246h.574245c.5469.042537,1.015672.297757,1.406315.765661l.058596.063805v.893271c-.742222,2.024749-1.617262,3.989946-2.625121,5.895592l.117193.12761h.925824c.234386-.212684.507836-.319026.82035-.319026.156257.170147.234386.382831.234386.638051-.27345.331787-.625029.49768-1.054736.49768h-1.043017Z"/>
      <path class="cls-1" d="M14.887403,10.540603l-.468772-.37007-.058596-.446636.468772-.382831.410175.319026.691438-.765661c.27345-.54447.429707-1.135731.468772-1.773782l-.175789-.25522h-.292982l-.691438.510441-.292982.446636-.351579.063805-.468772-.446636v-.510441l.058596-.063805v-.7529l.058596-.063805v-.957077l.058596-.063805v-.638051l.058596-.063805v-.7529l.058596-.382831-.058596-.063805v-.957077l.058596-.063805h.585964l.632842.12761.234386-.12761h1.054736l.351579.25522.058596.25522-.703157.25522-.292982-.063805-1.101613.446636-.058596.063805v.7529l-.058596.063805v.829466l-.117193.701856v.689095h.175789l.515649-.242459h.644561c.27345.076566.507836.242459.703157.49768l.175789.829466c-.117193,1.097448-.566432,2.029002-1.347718,2.794664-.265637.28925-.593777.391338-.98442.306265Z"/>
      <path class="cls-1" d="M18.809458,10.808585l-.398456-.280742-.035158-.574246c.789099-3.317865,1.832115-6.533643,3.12905-9.647332l.468772-.038283.234386.140371.023439.574246c-1.226619,2.688322-2.191507,5.525522-2.894664,8.511601l-.058596,1.212297-.468772.102088Z"/>
      <path class="cls-1" d="M23.598638,10.757541l-.011719-.063805c-.257824-.212684-.367204-.489172-.32814-.829466.148444-2.764888.355485-5.482985.621122-8.154292l.515649-.12761.386737.319026.035158.25522c-.343766,2.416087-.562526,4.900232-.65628,7.452436l.082035.638051-.070316.382831-.574245.12761Z"/>
      <path class="cls-1" d="M26.223759,10.757541l-.011719-.063805c-.257824-.212684-.367204-.489172-.32814-.829466.148444-2.764888.355485-5.482985.621122-8.154292l.515649-.12761.386737.319026.035158.25522c-.343766,2.416087-.562526,4.900232-.65628,7.452436l.082035.638051-.070316.382831-.574245.12761Z"/>
      <path class="cls-1" d="M28.933614,10.808585l-.398456-.280742-.035158-.574246c.789099-3.317865,1.832115-6.533643,3.12905-9.647332l.468772-.038283.234386.140371.023439.574246c-1.226619,2.688322-2.191507,5.525522-2.894664,8.511601l-.058596,1.212297-.468772.102088Z"/>
      <path class="cls-1" d="M34.613332,10.706497c-.390643,0-.722689-.144625-.99614-.433875l-.117193-.382831c1.250057-2.118329,2.222758-4.360015,2.918103-6.725058-.234386-.212684-.527368-.297757-.878947-.25522l-.925824.510441-.468772-.319026-.117193-.382831c.351579-.25522.742222-.446636,1.171929-.574246h.574245c.5469.042537,1.015672.297757,1.406315.765661l.058596.063805v.893271c-.742222,2.024749-1.617262,3.989946-2.625121,5.895592l.117193.12761h.925824c.234386-.212684.507836-.319026.82035-.319026.156257.170147.234386.382831.234386.638051-.27345.331787-.625029.49768-1.054736.49768h-1.043017Z"/>
      <path class="cls-1" d="M39.374879,10.706497c-.390643,0-.722689-.144625-.99614-.433875l-.117193-.382831c1.250057-2.118329,2.222758-4.360015,2.918103-6.725058-.234386-.212684-.527368-.297757-.878947-.25522l-.925824.510441-.468772-.319026-.117193-.382831c.351579-.25522.742222-.446636,1.171929-.574246h.574245c.5469.042537,1.015672.297757,1.406315.765661l.058596.063805v.893271c-.742222,2.024749-1.617262,3.989946-2.625121,5.895592l.117193.12761h.925824c.234386-.212684.507836-.319026.82035-.319026.156257.170147.234386.382831.234386.638051-.27345.331787-.625029.49768-1.054736.49768h-1.043017Z"/>
      <path class="cls-1" d="M44.332087,10.87239c-.687532-.876257-1.070362-1.897138-1.14849-3.062645v-.944316l-.058596-.063805v-.931555c.117193-1.965197.636748-3.760247,1.558665-5.385151l.281263-.063805.398456.319026v.37007c-.804724,1.420727-1.281309,2.964811-1.429753,4.632251v.62529l-.058596.306265.058596.063805v.944316c.039064.83372.289076,1.582367.750034,2.24594l.222666.063805c.156257.170147.214854.378577.175789.62529-.234386.170147-.484397.25522-.750034.25522Z"/>
      <path class="cls-1" d="M46.832052,10.74478c-.304702-.204176-.457052-.399845-.457052-.587007l3.609541-.676334.339859-.574246v-2.539443l-.738315-.267981-1.277402.306265-.632842-.484919-.035158-.153132.234386-.191415h2.121191l.398456-.140371v-1.390951l-.128912-.714617c.21876-.12761.496117-.191415.832069-.191415l.16407.740139v1.314385l.281263.280742h2.894664l.32814.229698.058596.280742-.257824.344548h-.152351l-.726596-.229698h-1.394595l-.398456-.063805-.457052.25522-.234386.408353v2.411833l.281263.293503h2.742314l.093754-.089327h.99614l.246105-.089327.750034.319026.046877.216937-.351579.267981h-.808631l-.082035-.063805h-.99614l-.105474.063805h-1.628981l-.070316.063805h-1.945402l-3.539225.650812Z"/>
      <path class="cls-1" d="M58.226596,11l-.117193-.063805-.281263-.599768.222666-.12761c.414082-.850735.65628-1.782289.726596-2.794664v-.906032l.058596-.063805v-1.212297l.058596-.063805v-1.518561c0-1.012374-.281263-1.905646-.843789-2.679814-.257824-.119103-.441427-.319026-.550807-.599768V.114849l.49221-.114849c.562526.408353.972701.91454,1.230525,1.518561.226573.689095.359392,1.416473.398456,2.182135v2.50116l-.058596.063805v1.148492c-.10938,1.259087-.390643,2.433101-.843789,3.522042l-.32814.063805-.117193-.063805-.046877.063805Z"/>
      <path class="cls-1" d="M61.136668,10.438515l-.351579-.191415-.175789-.765661c.078129-.340294.195321-.616783.351579-.829466h.937543l.351579.319026v.25522c-.078129.425367-.27345.808198-.585964,1.148492l-.527368.063805Z"/>
      <path class="cls-1" d="M64.488332,10.706497c-.390643,0-.722689-.144625-.99614-.433875l-.117193-.382831c1.250057-2.118329,2.222758-4.360015,2.918103-6.725058-.234386-.212684-.527368-.297757-.878947-.25522l-.925824.510441-.468772-.319026-.117193-.382831c.351579-.25522.742222-.446636,1.171929-.574246h.574245c.5469.042537,1.015672.297757,1.406315.765661l.058596.063805v.893271c-.742222,2.024749-1.617262,3.989946-2.625121,5.895592l.117193.12761h.925824c.234386-.212684.507836-.319026.82035-.319026.156257.170147.234386.382831.234386.638051-.27345.331787-.625029.49768-1.054736.49768h-1.043017Z"/>
      <path class="cls-1" d="M68.812388,10.591647c-.265637-.170147-.378924-.404099-.339859-.701856l.457052-.433875.527368-.25522c.460959-.799691.789099-1.641918.98442-2.526682l-.527368-.191415-.925824.893271-.351579.063805-.398456-.382831v-.382831c.92973-.884764,1.625075-1.914153,2.086033-3.088167l.058596-.638051-.691438-.12761c-.429707.170147-.855508.319026-1.277402.446636-.234386-.170147-.332047-.421114-.292982-.7529.500023-.297757,1.058642-.446636,1.675858-.446636.429707.042537.816444.212684,1.16021.510441.195321.246713.27345.561485.234386.944316-.304702.757154-.632842,1.493039-.98442,2.207657.351579.042537.660187.212684.925824.510441l.117193.178654v.701856c-.27345,1.08894-.777379,2.097061-1.511788,3.024362l-.457052.446636h-.468772Z"/>
      <path class="cls-1" d="M73.582087,10.87239c-.687532-.876257-1.070362-1.897138-1.14849-3.062645v-.944316l-.058596-.063805v-.931555c.117193-1.965197.636748-3.760247,1.558665-5.385151l.281263-.063805.398456.319026v.37007c-.804724,1.420727-1.281309,2.964811-1.429753,4.632251v.62529l-.058596.306265.058596.063805v.944316c.039064.83372.289076,1.582367.750034,2.24594l.222666.063805c.156257.170147.214854.378577.175789.62529-.234386.170147-.484397.25522-.750034.25522Z"/>
      <path class="cls-1" d="M76.402092,10.680974l-.562526-.395592-.16407-.918794c.171883-.331787.257824-.710363.257824-1.135731v-2.194896l.128912-.510441v-1.658933l.093754-.433875-.093754-.12761v-.88051l.32814-.216937.539087.191415.304702.459397h1.207087l.152351-.063805.210947.153132h2.156349l.234386-.089327.609403.191415.070316.421114-.093754.076566v2.62877l.093754.076566v1.135731l-.093754.089327v1.493039l-.738315.944316-1.289122.229698h-2.027437l-.539087-.102088-.644561.638051h-.140631ZM80.761668,9.187935l.269544-.918794v-1.212297l-.32814-.459397h-1.570385l-.269544.063805-.363298-.076566-.093754.076566h-1.382876l-.363298.37007v1.12297l-.058596.906032.480491.472158h1.31256l.480491.089327.222666-.089327.457052.089327,1.207087-.433875ZM80.914018,5.959397l.117193-.191415v-1.761021l-.421894-.574246h-3.656418l-.117193.854988v1.480278l.234386.357309h1.558665l.070316-.076566h.832069l.070316.076566h1.183648l.128912-.165893Z"/>
      <path class="cls-1" d="M83.605405,11l-.117193-.063805-.281263-.599768.222666-.12761c.414082-.850735.65628-1.782289.726596-2.794664v-.906032l.058596-.063805v-1.212297l.058596-.063805v-1.518561c0-1.012374-.281263-1.905646-.843789-2.679814-.257824-.119103-.441427-.319026-.550807-.599768V.114849l.49221-.114849c.562526.408353.972701.91454,1.230525,1.518561.226573.689095.359392,1.416473.398456,2.182135v2.50116l-.058596.063805v1.148492c-.10938,1.259087-.390643,2.433101-.843789,3.522042l-.32814.063805-.117193-.063805-.046877.063805Z"/>
    </g>
    <g>
      <path class="cls-1" d="M2.236065,23.503318c-.546102-.037088-.999957-.255907-1.361565-.656457-.479684-.77143-.771184-1.631871-.874501-2.581324l.044279-.222528-.044279-.333792c.250912-1.906322.90771-3.649458,1.970394-5.229406.214013-.222528.468614-.333792.763804-.333792.583001.148352,1.092204.445056,1.527609.890112l.055348.15577.276741.166896c.509203.697254.745355,1.524316.708456,2.481186l-.055348.27816.055348.15577-.055348.055632v.778848c-.066418,1.35742-.501823,2.566489-1.306216,3.627205-.479684.437638-1.047925.693545-1.704723.767721ZM3.010939,22.457436l.431716-.322665v-.166896l-.431716-.990249h-.110696l-.664178.656457h-.321019l-.498133-.333792c-.147595-.252198-.221393-.545193-.221393-.878985.147595-1.468684.660488-2.789017,1.538679-3.960997l.542412-.055632.387437.333792c.073798.511814.166044,1.005084.276741,1.479811l-.332089,1.379673v1.101513l.166044.55632h.166044c.361608-.845606.59776-1.765388.708456-2.759346v-1.157145l-.055348-.055632v-.545193c-.036899-.511814-.2915-.953161-.763804-1.324041-.29519-.289286-.623589-.471017-.985197-.545193l-.332089.166896c-.981507,1.535443-1.582957,3.24149-1.80435,5.118142l.055348.055632v.545193c.110696.660166.346848,1.2647.708456,1.813603.221393.18544.475994.27816.763804.27816l.774874-.389424ZM2.025742,20.81073c.693697-.845606,1.092204-1.798767,1.19552-2.859484v-.611952l-.210323-.055632c-.693697,1.031046-1.077444,2.188191-1.151242,3.471436l.110696.111264.055348-.055632Z"/>
      <path class="cls-1" d="M6.567981,23.369801c-.206633-.059341-.30995-.159478-.30995-.300413,1.217659-1.335168,2.320932-2.803852,3.309819-4.406053l-.763804-.689837v-.089011c.132836-.081594.31364-.100138.542412-.055632l.619899.333792c.59038-.830771,1.051615-1.7283,1.383704-2.692588l-1.162311-.322665c-.568241.793683-1.177071,1.487228-1.826489,2.080636h-.088557l-.199253-.344918-.166044-.055632v-.022253c.701077-.815936,1.380014-1.665251,2.036812-2.547945h.365298l.741665.723216c.501823,0,.9114.100138,1.228729.300413l.088557.333792-1.881837,3.182149-.453855.645331-2.67885,3.504815h-.199253l-.077487.322665-.509203.100138ZM12.080656,19.653585l.642039-.200275h1.106963l.166044-.055632.431716.255907.199253.611952v.623078l-.066418.066758v1.446431l-.564551.611952h-.475994c-.221393-.192858-.512893-.263325-.874501-.211402l-.929849.411677-.044279.089011h-.276741l-.531342-.411677v-.144643l.077487-.044506v-.867859l.066418-.600825-.055348-.211402.055348-.044506v-.856732l.121766-.500688.951988.033379ZM13.46436,22.223782c.243532-.326374.365298-.652749.365298-.979123v-.890112l-.564551-.467309c-.546102,0-1.055305.174314-1.527609.522941l-.066418.333792.055348.222528-.055348.445056.055348.333792-.066418.356045c.199253.281869.494443.396841.88557.344918l.918779-.222528Z"/>
      <path class="cls-1" d="M18.047187,23.670214l-.487064-.233654-.099627-.289286.121766-.567446v-.945744l.221393-1.602201h-.321019l-.243532.089011-.60883.878985-.553482.111264-.276741-.178022-.154975-.389424c.737975-.689837,1.49809-1.476102,2.280344-2.358796v-.500688l-.431716-.178022-.409576.144643h-.841292l-.365298-.233654-.044279-.322665.066418-.066758h.774874l.354228.055632.88557-.289286.154975-.600825v-.845606l-.055348-.166896.022139-.077885.453855-.066758.420646.244781.055348.356045-.132836.856732.354228.189149.730596-.144643.409576.244781.044279.178022-.265671.200275h-.929849l-.387437.244781-.099627.111264v.789974c.339469.58599.815463.993958,1.427982,1.223904l.420646.077885.077487-.222528.464924-.111264.487064.055632.143905-.100138v-.801101l-.066418-.367171v-.022253h.697387l.210323.211402v1.034755l.464924.311539h.874501l.265671-.255907v-.700963l.30995-.111264c.28781,0,.483374.089011.58669.267034l.088557.656457h.553482l.409576-.12239h.797013l.254601.100138v.311539c-.103317.140934-.254601.211402-.453855.211402h-.763804l-1.007336.300413-.520273,2.180774.464924.100138.332089-.077885.453855.244781v.100138c-.110696.15577-.261981.244781-.453855.267034h-.985197c-.177114.178022-.394817.24849-.653108.211402-.583001-.526649-1.18814-.967996-1.815419-1.324041l-.354228-.67871.110696-.40055v-.745469l-.797013-.255907-.221393.289286h-.387437l-1.361565-.712089-.188184.378297v.789974l-.066418.089011v1.07926l-.066418.077885v1.11264l.055348.534067-.431716.15577ZM22.098672,17.305915l-.531342-.300413-.110696-.356045v-.689837l-.254601-1.068134.542412-.166896.321019.267034c.095937.749177.228772,1.464975.398507,2.147394l-.365298.166896ZM23.460236,22.157024c.236152-.563737.402197-1.194233.498133-1.891487-.376367-.15577-.785944-.233654-1.228729-.233654l-.376367.389424-.066418.878985c.191874.445056.538722.767721,1.040545.967996l.132836-.111264ZM23.205635,17.216904l-.199253-.255907v-1.413052l-.132836-.511814.022139-.055632h.542412l.221393.111264.110696.166896v1.146019l.055348.322665-.055348.267034.033209.133517-.387437.111264-.088557-.100138-.121766.077885ZM24.279389,17.717592c-.118076-.059341-.158665-.203984-.121766-.433929l.918779-2.447807h.509203l.276741.233654v.333792l-.985197,2.1919-.59776.12239Z"/>
      <path class="cls-1" d="M29.33821,23.570076l-.332089-.322665v-.322665c.737975-1.609619,1.324666-3.367589,1.760071-5.273912l-.431716-.100138-1.527609.378297c-.339469-.103846-.535032-.296704-.58669-.578573.863431-.18544,1.837559-.363462,2.922382-.534067l.354228-2.047257h.664178c.184494.126099.258291.318957.221393.578573l-.343159,1.268409c.250912.21511.520273.289286.808083.222528l1.328356-.267034.642039.222528.121766.333792-.365298.189149h-.852362l-.232462.077885-.520273-.077885-.088557.077885h-.918779c-.29519.482144-.509203.993958-.642039,1.535443.420646.222528.785944.500688,1.095893.83448.789634,1.038464,1.730552,1.783932,2.822756,2.236406l.630969.311539v.022253l-.58669.267034c-.959368-.259616-1.80804-.764013-2.546015-1.51319l-.121766-.27816-.210323-.066758-.752735-.979123h-.464924l-1.372634,3.749595-.475994.055632Z"/>
      <path class="cls-1" d="M37.094331,18.89699l-.254601-.27816v-.912364l.398507-2.102889.143905-.044506.89664.311539.110696-.389424-.409576-1.713465c.110696-.089011.269361-.111264.475994-.066758l.29888.289286.30995,1.624454.619899.089011,1.106963-.333792v-.322665l-.332089-1.802476.28781-.100138.409576.356045.365298,1.735718.498133.100138.664178-.244781c.199253-.712089.361608-1.398217.487064-2.058383l.243532-.033379.354228.578573-.29888,1.390799.232462.233654h1.073754l.420646.244781.121766.333792v.756595l-.376367,1.324041-.387437.111264-.166044-.089011v-.389424l.232462-1.457558-.110696-.333792-.752735-.077885-4.948125.789974h-.951988l-.321019.67871v1.012502l-.055348.367171.044279.233654-.132836.189149h-.29888ZM41.068328,23.992879l-.343159-.233654v-.289286c.413266-.467309.678937-1.031046.797013-1.691212l-.431716-.111264-1.715793.433929h-.940919l-.343159-.289286v-.255907l.442785-.100138.28781.066758,2.67885-.600825v-.40055c-.479684-.318957-.959368-.545193-1.439052-.67871l-.088557-.356045c.553482-.229946,1.099583-.58599,1.638305-1.068134l.166044-.411677-.90771-.100138-1.383704.200275-.409576-.233654-.044279-.222528c.398507-.111264.844982-.192858,1.339425-.244781h1.472261c.346848,0,.634659.118682.863431.356045l.066418.322665c-.30257.422803-.656798.793683-1.062684,1.11264l-.243532.089011-.121766.344918,1.018406.95687h.431716c.435405-.192858.89664-.311539,1.383704-.356045.184494.02967.261981.144643.232462.344918-.568241.304121-1.2029.58599-1.903976.845606-.206633.860441-.531342,1.654124-.974127,2.381049-.154975.15577-.30995.218819-.464924.189149Z"/>
      <path class="cls-1" d="M49.97875,23.870489l-.28781-.222528-.110696-.289286v-1.134892l-.055348-.055632v-.634205l.055348-.27816-.055348-.344918.055348-.055632v-.912364l-.221393-.111264-.343159.111264h-.564551l-1.815419.289286c-.265671-.15577-.380057-.385715-.343159-.689837l.232462-.111264h.619899l1.18445-.222528h.797013l.398507-.12239.055348-.055632v-.67871l-.055348-.055632v-.634205l-.166044-.40055-.177114-.055632-1.472261.40055h-.741665c-.258291-.18544-.368988-.448765-.332089-.789974l.166044-.066758h.852362l.852362-.166896h.619899l.232462-.111264.055348-.233654-.28781-1.424179v-.567446l.509203-.055632c.265671.192858.398507.419094.398507.67871l-.055348.40055.166044,1.146019.564551.055632,1.029476-.111264.332089.27816v.289286l-.166044.222528-.28781.055632-.398507-.111264h-.619899l-.343159.111264-.055348.055632v.578573l.055348.055632v.734342l.121766.344918h.453855l1.472261-.344918h.675247l.343159.289286v.289286c-.568241.18544-1.173381.315248-1.815419.389424h-.619899l-.509203.178022-.055348.055632v1.023628l-.066418.289286.066418.055632v1.190524l.166044.634205-.055348.055632v.623078l-.453855.166896Z"/>
      <path class="cls-1" d="M57.093462,23.748098l-.332089-.27816-.332089-1.568822v-.55632l-.166044-.667584-.166044-.055632c-.442785.333792-.922469.55632-1.439052.667584l-.343159-.333792v-.222528l1.78221-.845606.055348-.166896-.332089-1.613327c.110696-.18544.276741-.241072.498133-.166896l.332089.333792.221393,1.279536.166044.055632c.819153-.296704,1.653065-.519232,2.501736-.667584h.553482l.28781.27816v.166896c-.265671.712089-.675247,1.364838-1.228729,1.958246-.29519.259616-.627279.389424-.996267.389424l-.221393-.166896v-.27816l.664178-.445056c.332089-.37088.571931-.782557.719526-1.23503h-.276741l-2.003603.67871-.055348.27816c.110696,1.001376.29888,1.987916.564551,2.959621l-.453855.222528Z"/>
      <path class="cls-1" d="M63.812728,20.087514l-.619899-.623078c-.671558-.860441-1.269318-1.743135-1.79328-2.648082.191874-.18544.416956-.241072.675247-.166896.634659.786265,1.269318,1.594783,1.903976,2.425554l.177114.333792v.567446l-.343159.111264ZM63.259246,23.247411l-.453855-.511814c1.121723-.749177,2.224996-1.520607,3.309819-2.31429h.110696l.055348-.166896c.59776-.489561,1.254558-.86415,1.970394-1.123766l.055348.27816c-1.350495,1.320332-2.774787,2.525692-4.272877,3.616079h-.110696l-.055348.166896-.055348.055632h-.553482Z"/>
      <path class="cls-1" d="M69.707809,23.714719l-.276741-.166896-.110696-.778848c.479684-1.639289.922469-3.278578,1.328356-4.917867l.498133-.055632.276741.222528.055348.389424c-.479684,1.565113-.940919,3.14877-1.383704,4.750971l.110696.389424-.498133.166896ZM75.541504,23.047135l-.221393-.111264c-.745355-1.342585-1.394773-2.722258-1.948255-4.139019.147595-.111264.31364-.148352.498133-.111264l.332089.27816c.413266,1.120057.933539,2.199318,1.560818,3.237781l.166044.27816.166044.344918c-.147595.18544-.332089.259616-.553482.222528ZM75.873593,18.963748l-.498133-.500688c-.332089-.111264-.649418-.296704-.951988-.55632-.442785-.445056-.682627-.967996-.719526-1.568822l.830222-1.057008h.121766l.055348-.166896c.405886-.37088.848672-.630496,1.328356-.778848h.553482c.368988.074176.686317.27816.951988.611952.368988.445056.535032.982832.498133,1.613327-.036899.637913-.29888,1.179398-.785944,1.624454l-.166044.055632-.166044.27816c-.29519.296704-.645728.445056-1.051615.445056ZM76.371726,17.906741c.442785-.407968.737975-.875276.88557-1.401926v-.723216l-.387437-.611952-.553482-.111264c-.774874.333792-1.368944.890112-1.78221,1.668959v.166896l.564551.789974c.332089.18544.701077.296704,1.106963.333792l.166044-.111264Z"/>
      <path class="cls-1" d="M79.730856,23.647961l-.398507-.233654-.110696-.567446c1.173381-1.743135,2.324622-3.508523,3.453725-5.296164h-.343159l-2.767408.567446-.453855-.40055v-.27816l.166044-.178022h.619899c1.21028-.222528,2.420559-.411677,3.630839-.567446l.453855.289286.055348.40055c-.678937.867859-1.320976,1.776515-1.926116,2.725967l.166044.344918c.870811.645331,1.760071,1.253574,2.667781,1.824729l.055348.40055-.453855.166896c-.981507-.682419-1.981464-1.364838-2.99987-2.047257-.568241.912364-1.099583,1.843273-1.594027,2.792725l-.221393.055632Z"/>
    </g>
  </g>
</svg>